Neuton-SC-Bold.ufo
<glyph name="exclam" format="1">
  <advance width="465"/>
  <unicode hex="0021"/>
  <outline>
    <contour>
      <point x="65" y="109.5" type="curve" smooth="yes"/>
      <point x="65" y="175.5"/>
      <point x="116.5" y="245"/>
      <point x="231" y="245" type="curve" smooth="yes"/>
      <point x="351" y="245"/>
      <point x="402.5" y="175.5"/>
      <point x="402.5" y="110" type="curve" smooth="yes"/>
      <point x="402.5" y="32.5"/>
      <point x="349.5" y="-31"/>
      <point x="230.5" y="-31" type="curve" smooth="yes"/>
      <point x="108.5" y="-31"/>
      <point x="65" y="38"/>
    </contour>
    <contour>
      <point x="87.5" y="1219.5" type="curve" smooth="yes"/>
      <point x="87.5" y="1271"/>
      <point x="157" y="1299"/>
      <point x="256" y="1299" type="curve" smooth="yes"/>
      <point x="321.5" y="1299"/>
      <point x="365" y="1285.5"/>
      <point x="365" y="1234" type="curve" smooth="yes"/>
      <point x="365" y="1031"/>
      <point x="327.5" y="636"/>
      <point x="298" y="359.5" type="curve"/>
      <point x="171" y="383.5" type="line"/>
      <point x="141" y="648.5"/>
      <point x="87.5" y="1083"/>
    </contour>
  </outline>
</glyph>
<glyph name="quotedbl" format="1">
  <advance width="620"/>
  <unicode hex="0022"/>
  <outline>
    <contour>
      <point x="75" y="1302" type="line"/>
      <point x="322" y="1282" type="line"/>
      <point x="273.5" y="911.5" type="line"/>
      <point x="139.5" y="893" type="line"/>
    </contour>
    <contour>
      <point x="344" y="1302" type="line"/>
      <point x="591.5" y="1282" type="line"/>
      <point x="543" y="911.5" type="line"/>
      <point x="408" y="893" type="line"/>
    </contour>
  </outline>
</glyph>
<glyph name="numbersign" format="1">
  <advance width="1033"/>
  <unicode hex="0023"/>
  <outline>
    <contour>
      <point x="20.5" y="224" type="line"/>
      <point x="64.5" y="397.5" type="line"/>
      <point x="950" y="397.5" type="line"/>
      <point x="907.5" y="224" type="line"/>
    </contour>
    <contour>
      <point x="78" y="555" type="line"/>
      <point x="122.5" y="728.5" type="line"/>
      <point x="1010.5" y="728.5" type="line"/>
      <point x="968.5" y="555" type="line"/>
    </contour>
    <contour>
      <point x="201" y="-26" type="line"/>
      <point x="358.5" y="964.5" type="line"/>
      <point x="520.5" y="974.5" type="line"/>
      <point x="363.5" y="-19" type="line"/>
    </contour>
    <contour>
      <point x="516" y="-26" type="line"/>
      <point x="673" y="964.5" type="line"/>
      <point x="835.5" y="973.5" type="line"/>
      <point x="678" y="-19" type="line"/>
    </contour>
  </outline>
</glyph>
<glyph name="dollar" format="1">
  <advance width="851"/>
  <unicode hex="0024"/>
  <outline>
    <contour>
      <point x="40.5" y="154" type="curve" smooth="yes"/>
      <point x="40.5" y="236"/>
      <point x="101" y="291.5"/>
      <point x="202.5" y="299.5" type="curve"/>
      <point x="243" y="162"/>
      <point x="312" y="94"/>
      <point x="388.5" y="94" type="curve" smooth="yes"/>
      <point x="462.5" y="94"/>
      <point x="509" y="114"/>
      <point x="509" y="175.5" type="curve" smooth="yes"/>
      <point x="509" y="312"/>
      <point x="69.5" y="345"/>
      <point x="69.5" y="629" type="curve" smooth="yes"/>
      <point x="69.5" y="743"/>
      <point x="163.5" y="924"/>
      <point x="417" y="924" type="curve" smooth="yes"/>
      <point x="582.5" y="924"/>
      <point x="706" y="865"/>
      <point x="706" y="753.5" type="curve" smooth="yes"/>
      <point x="706" y="667.5"/>
      <point x="633" y="608"/>
      <point x="540.5" y="600" type="curve"/>
      <point x="518" y="742"/>
      <point x="457.473" y="807.5"/>
      <point x="370" y="807.5" type="curve" smooth="yes"/>
      <point x="308" y="807.5"/>
      <point x="271.5" y="765"/>
      <point x="271.5" y="714" type="curve" smooth="yes"/>
      <point x="271.5" y="560.5"/>
      <point x="729" y="531.5"/>
      <point x="729" y="246" type="curve" smooth="yes"/>
      <point x="729" y="71.5"/>
      <point x="559.5" y="-35"/>
      <point x="359.5" y="-35" type="curve" smooth="yes"/>
      <point x="188" y="-35"/>
      <point x="40.5" y="46.5"/>
    </contour>
    <contour>
      <point x="320" y="-196.5" type="line"/>
      <point x="341" y="-15" type="line"/>
      <point x="463" y="-6" type="line"/>
      <point x="483" y="-178.5" type="line"/>
    </contour>
    <contour>
      <point x="324.5" y="1054.5" type="line"/>
      <point x="485.5" y="1071.5" type="line"/>
      <point x="463" y="898" type="line"/>
      <point x="347" y="898" type="line"/>
    </contour>
  </outline>
</glyph>
<glyph name="percent" format="1">
  <advance width="1186"/>
  <unicode hex="0025"/>
  <outline>
    <contour>
      <point x="-1.5" y="694.5" type="curve" smooth="yes"/>
      <point x="-1.5" y="826"/>
      <point x="133" y="957"/>
      <point x="256" y="957" type="curve" smooth="yes"/>
      <point x="269" y="957"/>
      <point x="270" y="956.5"/>
      <point x="277.5" y="954.5" type="curve"/>
      <point x="285.5" y="868" type="line"/>
      <point x="278" y="871"/>
      <point x="267" y="874.5"/>
      <point x="257.5" y="874.5" type="curve" smooth="yes"/>
      <point x="204.5" y="874.5"/>
      <point x="189.5" y="793"/>
      <point x="189.5" y="694.5" type="curve" smooth="yes"/>
      <point x="189.5" y="596.5"/>
      <point x="201.5" y="514"/>
      <point x="259.5" y="514" type="curve" smooth="yes"/>
      <point x="316.5" y="514"/>
      <point x="329.5" y="593.5"/>
      <point x="329.5" y="694.5" type="curve" smooth="yes"/>
      <point x="329.5" y="817.5"/>
      <point x="320.5" y="894.5"/>
      <point x="309" y="951" type="curve"/>
      <point x="872.5" y="955.5" type="line"/>
      <point x="880.5" y="876.5" type="line"/>
      <point x="441" y="874.5" type="line"/>
      <point x="498.5" y="823"/>
      <point x="515" y="736.5"/>
      <point x="515" y="694.5" type="curve" smooth="yes"/>
      <point x="515" y="544"/>
      <point x="375.5" y="429"/>
      <point x="259.5" y="428.5" type="curve" smooth="yes"/>
      <point x="119" y="428"/>
      <point x="-1.5" y="525.5"/>
    </contour>
    <contour>
      <point x="87" y="11" type="line"/>
      <point x="502.5" y="478.5" type="line"/>
      <point x="872.5" y="955.5" type="line"/>
      <point x="1084" y="953.5" type="line"/>
      <point x="1083.5" y="908" type="line"/>
      <point x="709.5" y="481.5" type="line"/>
      <point x="334" y="-22" type="line"/>
    </contour>
    <contour>
      <point x="665" y="231.5" type="curve" smooth="yes"/>
      <point x="665" y="377.5"/>
      <point x="809.5" y="494"/>
      <point x="929.5" y="494" type="curve" smooth="yes"/>
      <point x="1063" y="494"/>
      <point x="1181.5" y="383"/>
      <point x="1181.5" y="228.5" type="curve" smooth="yes"/>
      <point x="1181.5" y="82.5"/>
      <point x="1044" y="-31"/>
      <point x="930.5" y="-31" type="curve" smooth="yes"/>
      <point x="792" y="-31"/>
      <point x="665" y="67"/>
    </contour>
    <contour>
      <point x="857" y="227" type="curve" smooth="yes"/>
      <point x="857" y="129"/>
      <point x="874" y="58"/>
      <point x="930.5" y="58" type="curve" smooth="yes"/>
      <point x="985" y="58"/>
      <point x="997" y="128.5"/>
      <point x="997" y="229.5" type="curve" smooth="yes"/>
      <point x="997" y="330.5"/>
      <point x="978" y="414"/>
      <point x="929.5" y="414" type="curve" smooth="yes"/>
      <point x="870" y="414"/>
      <point x="857" y="323"/>
    </contour>
  </outline>
</glyph>
<glyph name="quotesingle" format="1">
  <advance width="351"/>
  <unicode hex="0027"/>
  <outline>
    <contour>
      <point x="50" y="1302" type="line"/>
      <point x="297" y="1282" type="line"/>
      <point x="248.5" y="911.5" type="line"/>
      <point x="114.5" y="893" type="line"/>
    </contour>
  </outline>
</glyph>
<glyph name="parenright" format="1">
  <advance width="522"/>
  <unicode hex="0029"/>
  <outline>
    <contour>
      <point x="34.5" y="-297.5" type="line"/>
      <point x="101.5" y="-194"/>
      <point x="228.5" y="40"/>
      <point x="228.5" y="454.5" type="curve" smooth="yes"/>
      <point x="228.5" y="878"/>
      <point x="131" y="1047"/>
      <point x="44.5" y="1159.5" type="curve"/>
      <point x="134" y="1255" type="line"/>
      <point x="199" y="1200"/>
      <point x="472" y="959.5"/>
      <point x="472" y="435.5" type="curve" smooth="yes"/>
      <point x="472" y="-79"/>
      <point x="183.5" y="-328"/>
      <point x="134.5" y="-375.5" type="curve"/>
    </contour>
  </outline>
</glyph>
<glyph name="comma" format="1">
  <advance width="498"/>
  <unicode hex="002C"/>
  <outline>
    <contour>
      <point x="61" y="-252" type="line"/>
      <point x="185" y="-216"/>
      <point x="234" y="-138"/>
      <point x="234" y="-75" type="curve" smooth="yes"/>
      <point x="234" y="-19"/>
      <point x="192" y="23"/>
      <point x="133" y="23" type="curve" smooth="yes"/>
      <point x="120" y="23"/>
      <point x="105" y="21"/>
      <point x="91" y="16" type="curve"/>
      <point x="77" y="44"/>
      <point x="68" y="66"/>
      <point x="68" y="96" type="curve" smooth="yes"/>
      <point x="68" y="196"/>
      <point x="147" y="248"/>
      <point x="230" y="248" type="curve" smooth="yes"/>
      <point x="355" y="248"/>
      <point x="439" y="163"/>
      <point x="439" y="11" type="curve" smooth="yes"/>
      <point x="439" y="-117"/>
      <point x="363" y="-291"/>
      <point x="94" y="-345" type="curve"/>
    </contour>
  </outline>
</glyph>
<glyph name="hyphen" format="1">
  <advance width="632"/>
  <unicode hex="002D"/>
  <outline>
    <contour>
      <point x="61" y="378" type="line"/>
      <point x="75" y="516" type="line"/>
      <point x="569" y="537" type="line"/>
      <point x="555" y="394" type="line"/>
    </contour>
  </outline>
</glyph>
<glyph name="zero" format="1">
  <advance width="935"/>
  <unicode hex="0030"/>
  <outline>
    <contour>
      <point x="76.5" y="495" type="curve" smooth="yes"/>
      <point x="76.5" y="784.5"/>
      <point x="273.5" y="1005"/>
      <point x="473.5" y="1004" type="curve" smooth="yes"/>
      <point x="708" y="1002.5"/>
      <point x="858" y="804.5"/>
      <point x="858" y="511" type="curve" smooth="yes"/>
      <point x="858" y="147.5"/>
      <point x="648" y="-21.5"/>
      <point x="467.5" y="-21.5" type="curve" smooth="yes"/>
      <point x="290" y="-21.5"/>
      <point x="76.5" y="111.5"/>
    </contour>
    <contour>
      <point x="345" y="518" type="curve" smooth="yes"/>
      <point x="345" y="159.5"/>
      <point x="394.5" y="112"/>
      <point x="468" y="112" type="curve" smooth="yes"/>
      <point x="539.5" y="112"/>
      <point x="594" y="158"/>
      <point x="594" y="505" type="curve" smooth="yes"/>
      <point x="594" y="841"/>
      <point x="537" y="887"/>
      <point x="470.5" y="887" type="curve" smooth="yes"/>
      <point x="399" y="887"/>
      <point x="345" y="845.5"/>
    </contour>
  </outline>
</glyph>
<glyph name="one" format="1">
  <advance width="739"/>
  <unicode hex="0031"/>
  <outline>
    <contour>
      <point x="40" y="-2.5" type="line"/>
      <point x="53" y="99" type="line"/>
      <point x="247" y="156" type="line"/>
      <point x="247" y="773.5" type="line"/>
      <point x="62.5" y="775" type="line"/>
      <point x="73" y="897" type="line"/>
      <point x="453" y="986" type="line"/>
      <point x="512.5" y="986" type="line"/>
      <point x="512.5" y="146" type="line"/>
      <point x="715.5" y="106" type="line"/>
      <point x="704" y="-2.5" type="line"/>
    </contour>
  </outline>
</glyph>
<glyph name="two" format="1">
  <advance width="876"/>
  <unicode hex="0032"/>
  <outline>
    <contour>
      <point x="42.5" y="132.5" type="line"/>
      <point x="302.5" y="321" type="line"/>
      <point x="455" y="433"/>
      <point x="501" y="555"/>
      <point x="501" y="649.5" type="curve" smooth="yes"/>
      <point x="501" y="766.5"/>
      <point x="439.5" y="838"/>
      <point x="345" y="838" type="curve" smooth="yes"/>
      <point x="263.5" y="838"/>
      <point x="186.5" y="751"/>
      <point x="159" y="650.5" type="curve"/>
      <point x="63.5" y="709" type="line"/>
      <point x="79.5" y="821.5"/>
      <point x="220.5" y="1012"/>
      <point x="469.5" y="1014" type="curve" smooth="yes"/>
      <point x="685" y="1015.5"/>
      <point x="772" y="851"/>
      <point x="772" y="715" type="curve" smooth="yes"/>
      <point x="772" y="544.5"/>
      <point x="614" y="379.5"/>
      <point x="436" y="257.5" type="curve"/>
      <point x="314.5" y="178" type="line"/>
      <point x="640.5" y="178" type="line"/>
      <point x="737" y="338" type="line"/>
      <point x="840" y="327" type="line"/>
      <point x="790" y="0" type="line"/>
      <point x="61" y="0" type="line"/>
    </contour>
  </outline>
</glyph>
<glyph name="four" format="1">
  <advance width="1063"/>
  <unicode hex="0034"/>
  <outline>
    <contour>
      <point x="18" y="172.5" type="line"/>
      <point x="680.5" y="1004" type="line"/>
      <point x="791" y="978" type="line"/>
      <point x="785" y="858.5"/>
      <point x="781.5" y="570"/>
      <point x="781.5" y="389" type="curve" smooth="yes"/>
      <point x="781.5" y="198" type="line"/>
      <point x="1034.5" y="198" type="line"/>
      <point x="1016" y="47" type="line"/>
      <point x="785" y="47" type="line"/>
      <point x="785" y="-273" type="line"/>
      <point x="526" y="-314" type="line"/>
      <point x="526" y="51" type="line"/>
      <point x="49" y="51" type="line"/>
    </contour>
    <contour>
      <point x="248.5" y="198" type="line"/>
      <point x="527.5" y="198" type="line"/>
      <point x="527.5" y="621.5" type="line"/>
    </contour>
  </outline>
</glyph>
<glyph name="five" format="1">
  <advance width="829"/>
  <unicode hex="0035"/>
  <outline>
    <contour>
      <point x="-19.5" y="-133.5" type="curve" smooth="yes"/>
      <point x="-19.5" y="-41"/>
      <point x="42" y="17.5"/>
      <point x="132.5" y="35" type="curve"/>
      <point x="160" y="-49"/>
      <point x="223.5" y="-182.5"/>
      <point x="361.5" y="-182.5" type="curve" smooth="yes"/>
      <point x="479" y="-182.5"/>
      <point x="552" y="-95"/>
      <point x="552" y="42.5" type="curve" smooth="yes"/>
      <point x="552" y="211"/>
      <point x="399.5" y="331"/>
      <point x="118.5" y="359" type="curve"/>
      <point x="250" y="957" type="line"/>
      <point x="753" y="995.5" type="line"/>
      <point x="720" y="755.5" type="line"/>
      <point x="312.5" y="742.5" type="line"/>
      <point x="288" y="569" type="line"/>
      <point x="626" y="535"/>
      <point x="785.5" y="356.5"/>
      <point x="785.5" y="141.5" type="curve" smooth="yes"/>
      <point x="785.5" y="-74.5"/>
      <point x="599.5" y="-302.5"/>
      <point x="290.5" y="-302.5" type="curve" smooth="yes"/>
      <point x="94" y="-302.5"/>
      <point x="-19.5" y="-215.5"/>
    </contour>
  </outline>
</glyph>
<glyph name="six" format="1">
  <advance width="921"/>
  <unicode hex="0036"/>
  <outline>
    <contour>
      <point x="45" y="420.5" type="curve" smooth="yes"/>
      <point x="45" y="816.5"/>
      <point x="385" y="1165.5"/>
      <point x="685" y="1252" type="curve"/>
      <point x="736" y="1178" type="line"/>
      <point x="516" y="1075"/>
      <point x="380" y="852.5"/>
      <point x="340" y="665.5" type="curve"/>
      <point x="354.5" y="665.5" type="line"/>
      <point x="412" y="730.5"/>
      <point x="492.5" y="763.5"/>
      <point x="573" y="763.5" type="curve" smooth="yes"/>
      <point x="778.5" y="763.5"/>
      <point x="877.5" y="612.5"/>
      <point x="877.5" y="406.5" type="curve" smooth="yes"/>
      <point x="877.5" y="139.5"/>
      <point x="661.5" y="-20"/>
      <point x="453" y="-20" type="curve" smooth="yes"/>
      <point x="173" y="-20"/>
      <point x="45" y="186"/>
    </contour>
    <contour>
      <point x="328.5" y="396" type="curve" smooth="yes"/>
      <point x="328.5" y="251"/>
      <point x="363.5" y="91.5"/>
      <point x="464" y="91.5" type="curve" smooth="yes"/>
      <point x="540" y="91.5"/>
      <point x="600" y="167.5"/>
      <point x="600" y="339" type="curve" smooth="yes"/>
      <point x="600" y="438.5"/>
      <point x="580" y="609"/>
      <point x="458.5" y="609" type="curve" smooth="yes"/>
      <point x="399.5" y="609"/>
      <point x="357" y="573"/>
      <point x="335" y="541.5" type="curve"/>
      <point x="332.5" y="509"/>
      <point x="328.5" y="440"/>
    </contour>
  </outline>
</glyph>
<glyph name="seven" format="1">
  <advance width="816"/>
  <unicode hex="0037"/>
  <outline>
    <contour>
      <point x="31.5" y="592" type="line"/>
      <point x="78" y="969" type="line"/>
      <point x="786.5" y="969" type="line"/>
      <point x="792" y="833.5" type="line"/>
      <point x="549.5" y="435.5"/>
      <point x="375.5" y="135"/>
      <point x="334.5" y="-294.5" type="curve"/>
      <point x="310.5" y="-297.5"/>
      <point x="280" y="-303"/>
      <point x="258.5" y="-303" type="curve" smooth="yes"/>
      <point x="159" y="-303"/>
      <point x="101" y="-252.5"/>
      <point x="101" y="-158.5" type="curve" smooth="yes"/>
      <point x="101" y="4.5"/>
      <point x="433" y="496.5"/>
      <point x="602" y="748" type="curve"/>
      <point x="197.5" y="748" type="line"/>
      <point x="134" y="573.5" type="line"/>
    </contour>
  </outline>
</glyph>
<glyph name="eight" format="1">
  <advance width="928"/>
  <unicode hex="0038"/>
  <outline>
    <contour>
      <point x="51.5" y="275" type="curve" smooth="yes"/>
      <point x="51.5" y="392"/>
      <point x="122" y="497"/>
      <point x="271.5" y="573.5" type="curve"/>
      <point x="271.5" y="585.5" type="line"/>
      <point x="180.5" y="650.5"/>
      <point x="101.5" y="753.5"/>
      <point x="101.5" y="875" type="curve" smooth="yes"/>
      <point x="101.5" y="1043.5"/>
      <point x="244" y="1200"/>
      <point x="490" y="1200" type="curve" smooth="yes"/>
      <point x="695.5" y="1200"/>
      <point x="823" y="1079"/>
      <point x="823" y="934" type="curve" smooth="yes"/>
      <point x="823" y="830"/>
      <point x="761.5" y="734.5"/>
      <point x="643.5" y="663" type="curve"/>
      <point x="644" y="650.5" type="line"/>
      <point x="808.5" y="545"/>
      <point x="879.5" y="439"/>
      <point x="879.5" y="319.5" type="curve" smooth="yes"/>
      <point x="879.5" y="132"/>
      <point x="695" y="-27"/>
      <point x="427.5" y="-27" type="curve" smooth="yes"/>
      <point x="183" y="-27"/>
      <point x="51.5" y="104.5"/>
    </contour>
    <contour>
      <point x="310" y="325.5" type="curve" smooth="yes"/>
      <point x="310" y="204.5"/>
      <point x="376.5" y="90.5"/>
      <point x="491" y="90.5" type="curve" smooth="yes"/>
      <point x="576" y="90.5"/>
      <point x="634" y="144.5"/>
      <point x="634" y="229.5" type="curve" smooth="yes"/>
      <point x="634" y="323"/>
      <point x="521" y="395"/>
      <point x="372" y="504.5" type="curve"/>
      <point x="334.5" y="466.5"/>
      <point x="310" y="399"/>
    </contour>
    <contour>
      <point x="353.5" y="981.5" type="curve" smooth="yes"/>
      <point x="353.5" y="897"/>
      <point x="419" y="792"/>
      <point x="537" y="722.5" type="curve"/>
      <point x="574" y="756"/>
      <point x="599.5" y="804"/>
      <point x="599.5" y="890" type="curve" smooth="yes"/>
      <point x="599.5" y="1006.5"/>
      <point x="535.5" y="1093.5"/>
      <point x="455.5" y="1093.5" type="curve" smooth="yes"/>
      <point x="398.5" y="1093.5"/>
      <point x="353.5" y="1047"/>
    </contour>
  </outline>
</glyph>
<glyph name="nine" format="1">
  <advance width="896"/>
  <unicode hex="0039"/>
  <outline>
    <contour>
      <point x="38" y="540" type="curve" smooth="yes"/>
      <point x="38" y="824"/>
      <point x="233.5" y="999.5"/>
      <point x="449" y="999.5" type="curve" smooth="yes"/>
      <point x="742.5" y="999.5"/>
      <point x="851.5" y="776"/>
      <point x="851.5" y="506.5" type="curve" smooth="yes"/>
      <point x="851.5" y="102.5"/>
      <point x="554" y="-229"/>
      <point x="183.5" y="-298" type="curve"/>
      <point x="147.5" y="-203.5" type="line"/>
      <point x="386" y="-110"/>
      <point x="520" y="70.5"/>
      <point x="554" y="273" type="curve"/>
      <point x="544" y="277.5" type="line"/>
      <point x="503.5" y="218"/>
      <point x="421.5" y="182.5"/>
      <point x="336" y="182.5" type="curve" smooth="yes"/>
      <point x="139.5" y="182.5"/>
      <point x="38" y="323.5"/>
    </contour>
    <contour>
      <point x="309.5" y="607" type="curve" smooth="yes"/>
      <point x="309.5" y="420"/>
      <point x="349.5" y="331"/>
      <point x="447" y="331" type="curve" smooth="yes"/>
      <point x="491" y="331"/>
      <point x="534.5" y="352.5"/>
      <point x="563" y="392" type="curve"/>
      <point x="571" y="436.5"/>
      <point x="572.5" y="513"/>
      <point x="572.5" y="567" type="curve" smooth="yes"/>
      <point x="572.5" y="751.5"/>
      <point x="522.5" y="883.5"/>
      <point x="433" y="883.5" type="curve" smooth="yes"/>
      <point x="353.5" y="883"/>
      <point x="309.5" y="805.5"/>
    </contour>
  </outline>
</glyph>
<glyph name="equal" format="1">
  <advance width="861"/>
  <unicode hex="003D"/>
  <outline>
    <contour>
      <point x="62" y="280" type="line"/>
      <point x="84" y="445" type="line"/>
      <point x="794" y="445" type="line"/>
      <point x="774" y="280" type="line"/>
    </contour>
    <contour>
      <point x="66" y="519" type="line"/>
      <point x="88" y="684" type="line"/>
      <point x="796" y="684" type="line"/>
      <point x="776" y="519" type="line"/>
    </contour>
  </outline>
</glyph>
<glyph name="question" format="1">
  <advance width="690"/>
  <unicode hex="003F"/>
  <outline>
    <contour>
      <point x="42" y="1142" type="curve" smooth="yes"/>
      <point x="42" y="1210"/>
      <point x="90" y="1289"/>
      <point x="255" y="1289" type="curve" smooth="yes"/>
      <point x="439" y="1289"/>
      <point x="642" y="1069"/>
      <point x="642" y="833" type="curve" smooth="yes"/>
      <point x="642" y="573"/>
      <point x="354" y="624"/>
      <point x="354" y="474" type="curve" smooth="yes"/>
      <point x="354" y="449"/>
      <point x="358" y="424"/>
      <point x="367" y="394" type="curve"/>
      <point x="249" y="370" type="line"/>
      <point x="202" y="440"/>
      <point x="164" y="544"/>
      <point x="164" y="610" type="curve" smooth="yes"/>
      <point x="164" y="806"/>
      <point x="480" y="754"/>
      <point x="480" y="926" type="curve" smooth="yes"/>
      <point x="480" y="996"/>
      <point x="407" y="1046"/>
      <point x="350" y="1046" type="curve" smooth="yes"/>
      <point x="272" y="1046"/>
      <point x="184" y="1014"/>
      <point x="150" y="978" type="curve"/>
      <point x="101" y="992"/>
      <point x="42" y="1067"/>
    </contour>
    <contour>
      <point x="140" y="110" type="curve" smooth="yes"/>
      <point x="140" y="176"/>
      <point x="192" y="245"/>
      <point x="306" y="245" type="curve" smooth="yes"/>
      <point x="426" y="245"/>
      <point x="477" y="176"/>
      <point x="477" y="110" type="curve" smooth="yes"/>
      <point x="477" y="32"/>
      <point x="425" y="-31"/>
      <point x="306" y="-31" type="curve" smooth="yes"/>
      <point x="184" y="-31"/>
      <point x="140" y="38"/>
    </contour>
  </outline>
</glyph>
<glyph name="at" format="1">
  <advance width="1457"/>
  <unicode hex="0040"/>
  <outline>
    <contour>
      <point x="53" y="326" type="curve" smooth="yes"/>
      <point x="53" y="706"/>
      <point x="374" y="1044"/>
      <point x="860" y="1044" type="curve" smooth="yes"/>
      <point x="1139" y="1044"/>
      <point x="1403" y="896"/>
      <point x="1403" y="606" type="curve" smooth="yes"/>
      <point x="1403" y="324"/>
      <point x="1173" y="76"/>
      <point x="899" y="76" type="curve" smooth="yes"/>
      <point x="821" y="76"/>
      <point x="754" y="108"/>
      <point x="757" y="192" type="curve"/>
      <point x="746" y="192" type="line"/>
      <point x="700" y="125"/>
      <point x="630" y="72"/>
      <point x="560" y="72" type="curve" smooth="yes"/>
      <point x="458" y="72"/>
      <point x="376" y="164"/>
      <point x="376" y="334" type="curve" smooth="yes"/>
      <point x="376" y="580"/>
      <point x="572" y="792"/>
      <point x="836" y="792" type="curve" smooth="yes"/>
      <point x="890" y="792"/>
      <point x="945" y="788"/>
      <point x="1000" y="776" type="curve"/>
      <point x="1018" y="756" type="line"/>
      <point x="978" y="390" type="line"/>
      <point x="968" y="297"/>
      <point x="955" y="206"/>
      <point x="1000" y="206" type="curve" smooth="yes"/>
      <point x="1136" y="206"/>
      <point x="1216" y="411"/>
      <point x="1216" y="558" type="curve" smooth="yes"/>
      <point x="1216" y="808"/>
      <point x="1043" y="942"/>
      <point x="807" y="942" type="curve" smooth="yes"/>
      <point x="460" y="942"/>
      <point x="254" y="670"/>
      <point x="254" y="371" type="curve" smooth="yes"/>
      <point x="254" y="75"/>
      <point x="431" y="-114"/>
      <point x="781" y="-114" type="curve" smooth="yes"/>
      <point x="923" y="-114"/>
      <point x="1066" y="-56"/>
      <point x="1138" y="4" type="curve"/>
      <point x="1178" y="-84" type="line"/>
      <point x="1076" y="-154"/>
      <point x="926" y="-224"/>
      <point x="726" y="-224" type="curve" smooth="yes"/>
      <point x="350" y="-224"/>
      <point x="53" y="-38"/>
    </contour>
    <contour>
      <point x="593" y="378" type="curve" smooth="yes"/>
      <point x="593" y="262"/>
      <point x="622" y="234"/>
      <point x="662" y="234" type="curve" smooth="yes"/>
      <point x="698" y="234"/>
      <point x="732" y="254"/>
      <point x="758" y="276" type="curve"/>
      <point x="808" y="675" type="line"/>
      <point x="796" y="675"/>
      <point x="779" y="686"/>
      <point x="748" y="686" type="curve" smooth="yes"/>
      <point x="641" y="686"/>
      <point x="593" y="478"/>
    </contour>
  </outline>
</glyph>
<glyph name="A" format="1">
  <advance width="1461"/>
  <unicode hex="0041"/>
  <outline>
    <contour>
      <point x="45" y="0" type="line"/>
      <point x="59" y="106" type="line"/>
      <point x="213" y="185" type="line"/>
      <point x="627" y="1221" type="line"/>
      <point x="875" y="1269" type="line"/>
      <point x="1265" y="181" type="line"/>
      <point x="1408" y="112" type="line"/>
      <point x="1397" y="-1" type="line"/>
      <point x="777" y="-1" type="line"/>
      <point x="791" y="105" type="line"/>
      <point x="960" y="184" type="line"/>
      <point x="886" y="392" type="line"/>
      <point x="481" y="392" type="line"/>
      <point x="407" y="182" type="line"/>
      <point x="594" y="114" type="line"/>
      <point x="581" y="0" type="line"/>
    </contour>
    <contour>
      <point x="535" y="548" type="line"/>
      <point x="836" y="548" type="line"/>
      <point x="690" y="984" type="line"/>
    </contour>
  </outline>
</glyph>
<glyph name="E" format="1">
  <advance width="1236"/>
  <unicode hex="0045"/>
  <outline>
    <contour>
      <point x="46" y="1134" type="line"/>
      <point x="61" y="1244" type="line"/>
      <point x="1145" y="1244" type="line"/>
      <point x="1114" y="875" type="line"/>
      <point x="985" y="894" type="line"/>
      <point x="923" y="1112" type="line"/>
      <point x="516" y="1112" type="line"/>
      <point x="516" y="684" type="line"/>
      <point x="751" y="684" type="line"/>
      <point x="795" y="813" type="line"/>
      <point x="939" y="840" type="line"/>
      <point x="905" y="416" type="line"/>
      <point x="766" y="393" type="line"/>
      <point x="733" y="562" type="line"/>
      <point x="516" y="562" type="line"/>
      <point x="516" y="151" type="line"/>
      <point x="945" y="151" type="line"/>
      <point x="1067" y="377" type="line"/>
      <point x="1191" y="362" type="line"/>
      <point x="1161" y="0" type="line"/>
      <point x="57" y="0" type="line"/>
      <point x="67" y="106" type="line"/>
      <point x="232" y="169" type="line"/>
      <point x="232" y="1078" type="line"/>
    </contour>
  </outline>
</glyph>
<glyph name="F" format="1">
  <advance width="1183"/>
  <unicode hex="0046"/>
  <outline>
    <contour>
      <point x="45" y="1134" type="line"/>
      <point x="60" y="1244" type="line"/>
      <point x="1140" y="1244" type="line"/>
      <point x="1090" y="878" type="line"/>
      <point x="963" y="898" type="line"/>
      <point x="916" y="1112" type="line"/>
      <point x="516" y="1112" type="line"/>
      <point x="516" y="638" type="line"/>
      <point x="749" y="638" type="line"/>
      <point x="795" y="770" type="line"/>
      <point x="942" y="800" type="line"/>
      <point x="902" y="354" type="line"/>
      <point x="767" y="326" type="line"/>
      <point x="735" y="506" type="line"/>
      <point x="516" y="506" type="line"/>
      <point x="516" y="174" type="line"/>
      <point x="746" y="113" type="line"/>
      <point x="731" y="0" type="line"/>
      <point x="56" y="0" type="line"/>
      <point x="68" y="106" type="line"/>
      <point x="232" y="169" type="line"/>
      <point x="232" y="1078" type="line"/>
    </contour>
  </outline>
</glyph>
<glyph name="M" format="1">
  <advance width="1821"/>
  <unicode hex="004D"/>
  <outline>
    <contour>
      <point x="43" y="0" type="line"/>
      <point x="59" y="114" type="line"/>
      <point x="227" y="177" type="line"/>
      <point x="292" y="1078" type="line"/>
      <point x="109" y="1128" type="line"/>
      <point x="121" y="1244" type="line"/>
      <point x="626" y="1244" type="line"/>
      <point x="701" y="1044" type="line"/>
      <point x="909" y="426" type="line"/>
      <point x="1143" y="1062" type="line"/>
      <point x="1211" y="1244" type="line"/>
      <point x="1709" y="1244" type="line"/>
      <point x="1695" y="1128" type="line"/>
      <point x="1530" y="1082" type="line"/>
      <point x="1591" y="172" type="line"/>
      <point x="1770" y="120" type="line"/>
      <point x="1758" y="0" type="line"/>
      <point x="1169" y="0" type="line"/>
      <point x="1187" y="114" type="line"/>
      <point x="1325" y="177" type="line"/>
      <point x="1271" y="890" type="line"/>
      <point x="968" y="40" type="line"/>
      <point x="763" y="12" type="line"/>
      <point x="471" y="877" type="line"/>
      <point x="423" y="172" type="line"/>
      <point x="579" y="120" type="line"/>
      <point x="561" y="0" type="line"/>
    </contour>
  </outline>
</glyph>
<glyph name="N" format="1">
  <advance width="1445"/>
  <unicode hex="004E"/>
  <outline>
    <contour>
      <point x="51" y="1128" type="line"/>
      <point x="64" y="1244" type="line"/>
      <point x="459" y="1244" type="line"/>
      <point x="1046" y="402" type="line"/>
      <point x="1046" y="1073" type="line"/>
      <point x="860" y="1131" type="line"/>
      <point x="878" y="1244" type="line"/>
      <point x="1404" y="1244" type="line"/>
      <point x="1384" y="1131" type="line"/>
      <point x="1217" y="1078" type="line"/>
      <point x="1217" y="8" type="line"/>
      <point x="999" y="-30" type="line"/>
      <point x="411" y="790" type="line"/>
      <point x="411" y="162" type="line"/>
      <point x="592" y="114" type="line"/>
      <point x="580" y="0" type="line"/>
      <point x="52" y="0" type="line"/>
      <point x="62" y="106" type="line"/>
      <point x="230" y="169" type="line"/>
      <point x="230" y="1060" type="line"/>
    </contour>
  </outline>
</glyph>
<glyph name="P" format="1">
  <advance width="1181"/>
  <unicode hex="0050"/>
  <outline>
    <contour>
      <point x="44" y="0" type="line"/>
      <point x="61" y="106" type="line"/>
      <point x="237" y="169" type="line"/>
      <point x="237" y="1056" type="line"/>
      <point x="57" y="1093" type="line"/>
      <point x="69" y="1211" type="line"/>
      <point x="241" y="1237"/>
      <point x="413" y="1261"/>
      <point x="631" y="1261" type="curve" smooth="yes"/>
      <point x="919" y="1261"/>
      <point x="1139" y="1184"/>
      <point x="1139" y="890" type="curve" smooth="yes"/>
      <point x="1139" y="652"/>
      <point x="931" y="470"/>
      <point x="660" y="470" type="curve" smooth="yes"/>
      <point x="629" y="470"/>
      <point x="599" y="472"/>
      <point x="569" y="474" type="curve"/>
      <point x="545" y="602" type="line"/>
      <point x="581" y="603" type="line" smooth="yes"/>
      <point x="763" y="606"/>
      <point x="851" y="698"/>
      <point x="851" y="848" type="curve" smooth="yes"/>
      <point x="851" y="994"/>
      <point x="775" y="1113"/>
      <point x="595" y="1113" type="curve" smooth="yes"/>
      <point x="565" y="1113"/>
      <point x="523" y="1108"/>
      <point x="511" y="1106" type="curve"/>
      <point x="511" y="178" type="line"/>
      <point x="749" y="120" type="line"/>
      <point x="731" y="0" type="line"/>
    </contour>
  </outline>
</glyph>
<glyph name="Q" format="1">
  <advance width="1399"/>
  <unicode hex="0051"/>
  <outline>
    <contour>
      <point x="47" y="608" type="curve" smooth="yes"/>
      <point x="47" y="994"/>
      <point x="311" y="1270"/>
      <point x="735" y="1270" type="curve" smooth="yes"/>
      <point x="1121" y="1270"/>
      <point x="1352" y="1030"/>
      <point x="1352" y="626" type="curve" smooth="yes"/>
      <point x="1352" y="323"/>
      <point x="1175" y="77"/>
      <point x="903" y="5" type="curve"/>
      <point x="965" y="-123"/>
      <point x="1098" y="-196"/>
      <point x="1336" y="-238" type="curve"/>
      <point x="1336" y="-250"/>
      <point x="1324" y="-334"/>
      <point x="1321" y="-343" type="curve"/>
      <point x="1245" y="-373"/>
      <point x="1167" y="-384"/>
      <point x="1091" y="-384" type="curve" smooth="yes"/>
      <point x="887" y="-384"/>
      <point x="703" y="-266"/>
      <point x="711" y="-24" type="curve"/>
      <point x="697" y="-26"/>
      <point x="675" y="-27"/>
      <point x="659" y="-27" type="curve" smooth="yes"/>
      <point x="265" y="-27"/>
      <point x="47" y="237"/>
    </contour>
    <contour>
      <point x="356" y="675" type="curve" smooth="yes"/>
      <point x="356" y="441"/>
      <point x="460" y="136"/>
      <point x="777" y="108" type="curve"/>
      <point x="991" y="182"/>
      <point x="1033" y="356"/>
      <point x="1033" y="568" type="curve" smooth="yes"/>
      <point x="1033" y="806"/>
      <point x="935" y="1131"/>
      <point x="677" y="1131" type="curve" smooth="yes"/>
      <point x="457" y="1131"/>
      <point x="356" y="961"/>
    </contour>
  </outline>
</glyph>
<glyph name="R" format="1">
  <advance width="1419"/>
  <unicode hex="0052"/>
  <outline>
    <contour>
      <point x="45" y="0" type="line"/>
      <point x="60" y="106" type="line"/>
      <point x="238" y="169" type="line"/>
      <point x="238" y="1048" type="line"/>
      <point x="57" y="1086" type="line"/>
      <point x="68" y="1205" type="line"/>
      <point x="214" y="1228"/>
      <point x="466" y="1254"/>
      <point x="614" y="1254" type="curve" smooth="yes"/>
      <point x="953" y="1254"/>
      <point x="1158" y="1172"/>
      <point x="1158" y="926" type="curve" smooth="yes"/>
      <point x="1158" y="770"/>
      <point x="1025" y="632"/>
      <point x="877" y="580" type="curve"/>
      <point x="1028" y="374" type="line" smooth="yes"/>
      <point x="1128" y="238"/>
      <point x="1198" y="146"/>
      <point x="1334" y="110" type="curve" smooth="yes"/>
      <point x="1370" y="100" type="line"/>
      <point x="1347" y="0" type="line"/>
      <point x="1304" y="-14"/>
      <point x="1248" y="-24"/>
      <point x="1178" y="-24" type="curve" smooth="yes"/>
      <point x="976" y="-24"/>
      <point x="858" y="98"/>
      <point x="768" y="268" type="curve" smooth="yes"/>
      <point x="644" y="498" type="line"/>
      <point x="520" y="498" type="line"/>
      <point x="520" y="178" type="line"/>
      <point x="685" y="119" type="line"/>
      <point x="674" y="0" type="line"/>
    </contour>
    <contour>
      <point x="520" y="648" type="line"/>
      <point x="695" y="648" type="line"/>
      <point x="783" y="686"/>
      <point x="854" y="756"/>
      <point x="854" y="874" type="curve" smooth="yes"/>
      <point x="854" y="1013"/>
      <point x="758" y="1122"/>
      <point x="596" y="1122" type="curve" smooth="yes"/>
      <point x="556" y="1122"/>
      <point x="526" y="1119"/>
      <point x="520" y="1119" type="curve"/>
    </contour>
  </outline>
</glyph>
<glyph name="S" format="1">
  <advance width="984"/>
  <unicode hex="0053"/>
  <outline>
    <contour>
      <point x="51" y="124" type="curve"/>
      <point x="74" y="438" type="line"/>
      <point x="214" y="417" type="line"/>
      <point x="254" y="230" type="line"/>
      <point x="293" y="172"/>
      <point x="381" y="129"/>
      <point x="470" y="129" type="curve" smooth="yes"/>
      <point x="562" y="129"/>
      <point x="652" y="184"/>
      <point x="652" y="284" type="curve" smooth="yes"/>
      <point x="652" y="512"/>
      <point x="67" y="488"/>
      <point x="67" y="886" type="curve" smooth="yes"/>
      <point x="67" y="1143"/>
      <point x="304" y="1268"/>
      <point x="532" y="1268" type="curve" smooth="yes"/>
      <point x="640" y="1268"/>
      <point x="785" y="1230"/>
      <point x="850" y="1172" type="curve"/>
      <point x="850" y="1156"/>
      <point x="824" y="850"/>
      <point x="824" y="850" type="curve"/>
      <point x="688" y="872" type="line"/>
      <point x="656" y="1038" type="line"/>
      <point x="625" y="1088"/>
      <point x="543" y="1136"/>
      <point x="464" y="1136" type="curve" smooth="yes"/>
      <point x="380" y="1136"/>
      <point x="320" y="1086"/>
      <point x="320" y="992" type="curve" smooth="yes"/>
      <point x="320" y="751"/>
      <point x="941" y="768"/>
      <point x="941" y="368" type="curve" smooth="yes"/>
      <point x="941" y="96"/>
      <point x="653" y="-24"/>
      <point x="445" y="-24" type="curve" smooth="yes"/>
      <point x="258" y="-24"/>
      <point x="110" y="42"/>
    </contour>
  </outline>
</glyph>
<glyph name="T" format="1">
  <advance width="1280"/>
  <unicode hex="0054"/>
  <outline>
    <contour>
      <point x="47" y="1244" type="line"/>
      <point x="1234" y="1244" type="line"/>
      <point x="1201" y="851" type="line"/>
      <point x="1062" y="874" type="line"/>
      <point x="1011" y="1112" type="line"/>
      <point x="767" y="1112" type="line"/>
      <point x="767" y="161" type="line"/>
      <point x="960" y="116" type="line"/>
      <point x="945" y="0" type="line"/>
      <point x="307" y="0" type="line"/>
      <point x="317" y="107" type="line"/>
      <point x="490" y="165" type="line"/>
      <point x="490" y="1112" type="line"/>
      <point x="253" y="1112" type="line"/>
      <point x="183" y="848" type="line"/>
      <point x="52" y="867" type="line"/>
    </contour>
  </outline>
</glyph>
<glyph name="U" format="1">
  <advance width="1535"/>
  <unicode hex="0055"/>
  <outline>
    <contour>
      <point x="41" y="1131" type="line"/>
      <point x="62" y="1244" type="line"/>
      <point x="693" y="1244" type="line"/>
      <point x="678" y="1131" type="line"/>
      <point x="510" y="1078" type="line"/>
      <point x="510" y="526" type="line" smooth="yes"/>
      <point x="510" y="273"/>
      <point x="642" y="169"/>
      <point x="832" y="169" type="curve" smooth="yes"/>
      <point x="1010" y="169"/>
      <point x="1124" y="273"/>
      <point x="1124" y="510" type="curve" smooth="yes"/>
      <point x="1125" y="1073" type="line"/>
      <point x="946" y="1131" type="line"/>
      <point x="960" y="1244" type="line"/>
      <point x="1492" y="1244" type="line"/>
      <point x="1478" y="1131" type="line"/>
      <point x="1312" y="1078" type="line"/>
      <point x="1308" y="540" type="line" smooth="yes"/>
      <point x="1304" y="155"/>
      <point x="1126" y="-27"/>
      <point x="767" y="-27" type="curve" smooth="yes"/>
      <point x="535" y="-27"/>
      <point x="228" y="21"/>
      <point x="228" y="476" type="curve" smooth="yes"/>
      <point x="228" y="1073" type="line"/>
    </contour>
  </outline>
</glyph>
<glyph name="Z" format="1">
  <advance width="1136"/>
  <unicode hex="005A"/>
  <outline>
    <contour>
      <point x="53" y="170" type="line"/>
      <point x="741" y="1109" type="line"/>
      <point x="302" y="1109" type="line"/>
      <point x="232" y="858" type="line"/>
      <point x="87" y="882" type="line"/>
      <point x="97" y="1244" type="line"/>
      <point x="1077" y="1244" type="line"/>
      <point x="1073" y="1128" type="line"/>
      <point x="349" y="153" type="line"/>
      <point x="813" y="138" type="line"/>
      <point x="967" y="404" type="line"/>
      <point x="1089" y="384" type="line"/>
      <point x="1030" y="0" type="line"/>
      <point x="63" y="0" type="line"/>
    </contour>
  </outline>
</glyph>
<glyph name="backslash" format="1">
  <advance width="720"/>
  <unicode hex="005C"/>
  <outline>
    <contour>
      <point x="37" y="1304" type="line"/>
      <point x="222" y="1291" type="line"/>
      <point x="683" y="-393" type="line"/>
      <point x="505" y="-382" type="line"/>
    </contour>
  </outline>
</glyph>
<glyph name="asciicircum" format="1">
  <advance width="740"/>
  <unicode hex="005E"/>
  <outline>
    <contour>
      <point x="49" y="826" type="line"/>
      <point x="314" y="1237" type="line"/>
      <point x="414" y="1250" type="line"/>
      <point x="688" y="824" type="line"/>
      <point x="599" y="788" type="line"/>
      <point x="356" y="1018" type="line"/>
      <point x="345" y="1018" type="line"/>
      <point x="131" y="794" type="line"/>
    </contour>
  </outline>
</glyph>
<glyph name="grave" format="1">
  <advance width="508"/>
  <unicode hex="0060"/>
  <outline>
    <contour>
      <point x="75" y="1658" type="line"/>
      <point x="292" y="1696" type="line"/>
      <point x="432" y="1356" type="line"/>
      <point x="275" y="1323" type="line"/>
    </contour>
  </outline>
</glyph>
<glyph name="a" format="1">
  <advance width="1126"/>
  <unicode hex="0061"/>
  <outline>
    <contour>
      <point x="35" y="0" type="line"/>
      <point x="49" y="106" type="line"/>
      <point x="159" y="185" type="line"/>
      <point x="465" y="925.5" type="line"/>
      <point x="709" y="973.5" type="line"/>
      <point x="994.5" y="181" type="line"/>
      <point x="1092" y="112.5" type="line"/>
      <point x="1081.5" y="-1" type="line"/>
      <point x="583" y="-1" type="line"/>
      <point x="597" y="105" type="line"/>
      <point x="700.5" y="180.5" type="line"/>
      <point x="528.5" y="706" type="line"/>
      <point x="342" y="182" type="line"/>
      <point x="464.5" y="114" type="line"/>
      <point x="451.5" y="0" type="line"/>
    </contour>
    <contour>
      <point x="311.5" y="326" type="line"/>
      <point x="365.5" y="436.5" type="line"/>
      <point x="692" y="436.5" type="line"/>
      <point x="742" y="326" type="line"/>
    </contour>
  </outline>
</glyph>
<glyph name="c" format="1">
  <advance width="929"/>
  <unicode hex="0063"/>
  <outline>
    <contour>
      <point x="37" y="439" type="curve" smooth="yes"/>
      <point x="37" y="690.5"/>
      <point x="189" y="972"/>
      <point x="566.5" y="972" type="curve" smooth="yes"/>
      <point x="666" y="972"/>
      <point x="787.5" y="949.5"/>
      <point x="853.5" y="904" type="curve"/>
      <point x="827.5" y="578" type="line"/>
      <point x="693.5" y="596" type="line"/>
      <point x="650.5" y="772" type="line"/>
      <point x="625.5" y="800"/>
      <point x="589.5" y="822"/>
      <point x="521.5" y="822" type="curve" smooth="yes"/>
      <point x="401" y="822"/>
      <point x="330" y="704.5"/>
      <point x="330" y="515" type="curve" smooth="yes"/>
      <point x="330" y="284"/>
      <point x="464.5" y="156.5"/>
      <point x="610.5" y="156.5" type="curve" smooth="yes"/>
      <point x="725" y="156.5"/>
      <point x="789.5" y="188.5"/>
      <point x="848.5" y="227" type="curve"/>
      <point x="895.5" y="121.5" type="line"/>
      <point x="833.5" y="51.5"/>
      <point x="705" y="-26.5"/>
      <point x="512.5" y="-26.5" type="curve" smooth="yes"/>
      <point x="222.5" y="-26.5"/>
      <point x="37" y="143"/>
    </contour>
  </outline>
</glyph>
<glyph name="f" format="1">
  <advance width="991"/>
  <unicode hex="0066"/>
  <outline>
    <contour>
      <point x="35" y="844.5" type="line"/>
      <point x="50" y="954.5" type="line"/>
      <point x="955.5" y="954.5" type="line"/>
      <point x="911.5" y="628.5" type="line"/>
      <point x="771.5" y="649" type="line"/>
      <point x="736" y="822.5" type="line"/>
      <point x="460.5" y="822.5" type="line"/>
      <point x="460.5" y="493.5" type="line"/>
      <point x="631.5" y="502.5" type="line"/>
      <point x="654.5" y="546" type="line"/>
      <point x="776" y="563.5" type="line"/>
      <point x="746" y="304.5" type="line"/>
      <point x="634.5" y="308" type="line"/>
      <point x="614.5" y="368" type="line"/>
      <point x="460.5" y="376.5" type="line"/>
      <point x="459" y="174.5" type="line"/>
      <point x="640.5" y="123" type="line"/>
      <point x="626" y="0" type="line"/>
      <point x="46" y="0" type="line"/>
      <point x="58" y="106" type="line"/>
      <point x="177.5" y="169" type="line"/>
      <point x="177.5" y="788.5" type="line"/>
    </contour>
  </outline>
</glyph>
<glyph name="g" format="1">
  <advance width="1101"/>
  <unicode hex="0067"/>
  <outline>
    <contour>
      <point x="37" y="435.5" type="curve" smooth="yes"/>
      <point x="37" y="769.5"/>
      <point x="318" y="972"/>
      <point x="617" y="972" type="curve" smooth="yes"/>
      <point x="790" y="972"/>
      <point x="896.5" y="952.5"/>
      <point x="968.5" y="930.5" type="curve"/>
      <point x="936" y="630" type="line"/>
      <point x="788.5" y="645" type="line"/>
      <point x="730" y="791.5" type="line"/>
      <point x="703" y="808.5"/>
      <point x="647.5" y="830.5"/>
      <point x="568.5" y="830.5" type="curve" smooth="yes"/>
      <point x="443.5" y="830.5"/>
      <point x="341.5" y="738.5"/>
      <point x="341.5" y="507" type="curve" smooth="yes"/>
      <point x="341.5" y="272"/>
      <point x="432" y="136"/>
      <point x="585" y="136" type="curve" smooth="yes"/>
      <point x="663.5" y="136"/>
      <point x="701" y="143"/>
      <point x="727.5" y="168.5" type="curve"/>
      <point x="727.5" y="296.5" type="line"/>
      <point x="554" y="347.5" type="line"/>
      <point x="568.5" y="455" type="line"/>
      <point x="1066.5" y="455" type="line"/>
      <point x="1052" y="340" type="line"/>
      <point x="968.5" y="303" type="line"/>
      <point x="968.5" y="46" type="line"/>
      <point x="879" y="4"/>
      <point x="712" y="-27.5"/>
      <point x="565.5" y="-27.5" type="curve" smooth="yes"/>
      <point x="212" y="-27.5"/>
      <point x="37" y="154.5"/>
    </contour>
  </outline>
</glyph>
<glyph name="h" format="1">
  <advance width="1250"/>
  <unicode hex="0068"/>
  <outline>
    <contour>
      <point x="35" y="841.5" type="line"/>
      <point x="53" y="954.5" type="line"/>
      <point x="576" y="954.5" type="line"/>
      <point x="561.5" y="837.5" type="line"/>
      <point x="458" y="789" type="line"/>
      <point x="458" y="547.5" type="line"/>
      <point x="789" y="547.5" type="line"/>
      <point x="789" y="783.5" type="line"/>
      <point x="677" y="836.5" type="line"/>
      <point x="691" y="954.5" type="line"/>
      <point x="1213" y="954.5" type="line"/>
      <point x="1197.5" y="841.5" type="line"/>
      <point x="1075" y="789" type="line"/>
      <point x="1075" y="162.5" type="line"/>
      <point x="1210.5" y="114" type="line"/>
      <point x="1198.5" y="0" type="line"/>
      <point x="670.5" y="0" type="line"/>
      <point x="682.5" y="110" type="line"/>
      <point x="789" y="169" type="line"/>
      <point x="789" y="395.5" type="line"/>
      <point x="458" y="395.5" type="line"/>
      <point x="458" y="162.5" type="line"/>
      <point x="575.5" y="114" type="line"/>
      <point x="560" y="0" type="line"/>
      <point x="41" y="0" type="line"/>
      <point x="51" y="106" type="line"/>
      <point x="174" y="169" type="line"/>
      <point x="174" y="783.5" type="line"/>
    </contour>
  </outline>
</glyph>
<glyph name="k" format="1">
  <advance width="1206"/>
  <unicode hex="006B"/>
  <outline>
    <contour>
      <point x="35" y="841.5" type="line"/>
      <point x="58" y="954.5" type="line"/>
      <point x="593" y="954.5" type="line"/>
      <point x="576.5" y="831.5" type="line"/>
      <point x="468.5" y="771" type="line"/>
      <point x="468.5" y="172" type="line"/>
      <point x="596.5" y="124" type="line"/>
      <point x="579" y="0" type="line"/>
      <point x="40" y="0" type="line"/>
      <point x="53" y="106" type="line"/>
      <point x="190" y="185" type="line"/>
      <point x="190" y="765.5" type="line"/>
    </contour>
    <contour>
      <point x="498" y="483.5" type="line"/>
      <point x="526" y="512"/>
      <point x="564" y="549"/>
      <point x="612.5" y="607" type="curve" smooth="yes"/>
      <point x="758.5" y="776.5" type="line"/>
      <point x="706" y="835.5" type="line"/>
      <point x="723.5" y="954.5" type="line"/>
      <point x="1134" y="954.5" type="line"/>
      <point x="1113" y="840" type="line"/>
      <point x="957.5" y="773" type="line"/>
      <point x="731" y="516.5" type="line"/>
      <point x="830" y="382.5" type="line" smooth="yes"/>
      <point x="919.5" y="262.5"/>
      <point x="1024.5" y="149"/>
      <point x="1126" y="116" type="curve" smooth="yes"/>
      <point x="1171.5" y="101.5" type="line"/>
      <point x="1150.5" y="0.5" type="line"/>
      <point x="1099.5" y="-15"/>
      <point x="1055.5" y="-22.5"/>
      <point x="1007.5" y="-22.5" type="curve" smooth="yes"/>
      <point x="838" y="-22.5"/>
      <point x="690" y="78"/>
      <point x="585.5" y="270" type="curve" smooth="yes"/>
      <point x="493" y="430.5" type="line"/>
    </contour>
  </outline>
</glyph>
<glyph name="l" format="1">
  <advance width="997"/>
  <unicode hex="006C"/>
  <outline>
    <contour>
      <point x="37" y="843" type="line"/>
      <point x="53" y="954.5" type="line"/>
      <point x="619.5" y="954.5" type="line"/>
      <point x="604" y="843" type="line"/>
      <point x="460.5" y="770.5" type="line"/>
      <point x="460.5" y="148" type="line"/>
      <point x="708.5" y="137" type="line"/>
      <point x="823" y="354" type="line"/>
      <point x="962" y="335.5" type="line"/>
      <point x="939.5" y="0" type="line"/>
      <point x="41.5" y="0" type="line"/>
      <point x="54" y="106" type="line"/>
      <point x="177" y="169" type="line"/>
      <point x="177" y="767.5" type="line"/>
    </contour>
  </outline>
</glyph>
<glyph name="q" format="1">
  <advance width="1073"/>
  <unicode hex="0071"/>
  <outline>
    <contour>
      <point x="36.5" y="470.5" type="curve" smooth="yes"/>
      <point x="36.5" y="762.5"/>
      <point x="247" y="972"/>
      <point x="562.5" y="972" type="curve" smooth="yes"/>
      <point x="854.5" y="972"/>
      <point x="1036" y="797"/>
      <point x="1036" y="502" type="curve" smooth="yes"/>
      <point x="1036" y="254"/>
      <point x="888" y="52.5"/>
      <point x="678" y="-5" type="curve"/>
      <point x="725" y="-114.5"/>
      <point x="833" y="-186"/>
      <point x="981.5" y="-192.5" type="curve"/>
      <point x="981.5" y="-204.5"/>
      <point x="969.5" y="-279"/>
      <point x="966.5" y="-288" type="curve"/>
      <point x="907" y="-320"/>
      <point x="842.5" y="-336"/>
      <point x="781" y="-336" type="curve" smooth="yes"/>
      <point x="612" y="-336"/>
      <point x="498" y="-211"/>
      <point x="523" y="-28" type="curve"/>
      <point x="213" y="-32.5"/>
      <point x="36.5" y="181"/>
    </contour>
    <contour>
      <point x="335" y="527" type="curve" smooth="yes"/>
      <point x="335" y="306.5"/>
      <point x="414" y="121.5"/>
      <point x="576.5" y="107" type="curve"/>
      <point x="698" y="162"/>
      <point x="729" y="291"/>
      <point x="729" y="449.5" type="curve" smooth="yes"/>
      <point x="729" y="615"/>
      <point x="659" y="837.5"/>
      <point x="510" y="837.5" type="curve" smooth="yes"/>
      <point x="395.5" y="837.5"/>
      <point x="335" y="721.5"/>
    </contour>
  </outline>
</glyph>
<glyph name="r" format="1">
  <advance width="1189"/>
  <unicode hex="0072"/>
  <outline>
    <contour>
      <point x="35" y="0" type="line"/>
      <point x="50" y="106" type="line"/>
      <point x="193.5" y="169" type="line"/>
      <point x="193.5" y="766" type="line"/>
      <point x="47" y="804.5" type="line"/>
      <point x="58" y="923" type="line"/>
      <point x="191.5" y="949"/>
      <point x="359" y="972"/>
      <point x="549.5" y="972" type="curve" smooth="yes"/>
      <point x="850.5" y="972"/>
      <point x="1013" y="888"/>
      <point x="1013" y="697" type="curve" smooth="yes"/>
      <point x="1013" y="560"/>
      <point x="917.5" y="466"/>
      <point x="814" y="423.5" type="curve"/>
      <point x="814" y="422.5" type="line"/>
      <point x="891.5" y="326" type="line" smooth="yes"/>
      <point x="985" y="218"/>
      <point x="1061" y="146"/>
      <point x="1148.5" y="118" type="curve" smooth="yes"/>
      <point x="1179.5" y="106.5" type="line"/>
      <point x="1156.5" y="6" type="line"/>
      <point x="1111" y="-10.5"/>
      <point x="1047" y="-18.5"/>
      <point x="984.5" y="-18.5" type="curve" smooth="yes"/>
      <point x="828.5" y="-18.5"/>
      <point x="714" y="80.5"/>
      <point x="630.5" y="273" type="curve" smooth="yes"/>
      <point x="594.5" y="360.5" type="line"/>
      <point x="468" y="360.5" type="line"/>
      <point x="468" y="167.5" type="line"/>
      <point x="608" y="119" type="line"/>
      <point x="597" y="0" type="line"/>
    </contour>
    <contour>
      <point x="468" y="485.5" type="line"/>
      <point x="645" y="485.5" type="line"/>
      <point x="692.5" y="511"/>
      <point x="728" y="566.5"/>
      <point x="728" y="655" type="curve" smooth="yes"/>
      <point x="728" y="758.5"/>
      <point x="652.5" y="840"/>
      <point x="526" y="840" type="curve" smooth="yes"/>
      <point x="496.5" y="840"/>
      <point x="473.5" y="837.5"/>
      <point x="468" y="837" type="curve"/>
    </contour>
  </outline>
</glyph>
<glyph name="s" format="1">
  <advance width="801"/>
  <unicode hex="0073"/>
  <outline>
    <contour>
      <point x="35" y="52.5" type="curve"/>
      <point x="68.5" y="338.5" type="line"/>
      <point x="208" y="317" type="line"/>
      <point x="238.5" y="168" type="line"/>
      <point x="270.5" y="134.5"/>
      <point x="314" y="115.5"/>
      <point x="388.5" y="115.5" type="curve" smooth="yes"/>
      <point x="449.5" y="115.5"/>
      <point x="514" y="148.5"/>
      <point x="514" y="202.5" type="curve" smooth="yes"/>
      <point x="514" y="347"/>
      <point x="61" y="355.5"/>
      <point x="61" y="666" type="curve" smooth="yes"/>
      <point x="61" y="857.5"/>
      <point x="232" y="972"/>
      <point x="430.5" y="972" type="curve" smooth="yes"/>
      <point x="558.5" y="972"/>
      <point x="661.5" y="948.5"/>
      <point x="716.5" y="922" type="curve"/>
      <point x="716.5" y="908"/>
      <point x="691.5" y="635"/>
      <point x="691.5" y="635" type="curve"/>
      <point x="555.5" y="656" type="line"/>
      <point x="528.5" y="802" type="line"/>
      <point x="508" y="828"/>
      <point x="458" y="850"/>
      <point x="408" y="850" type="curve" smooth="yes"/>
      <point x="330" y="850"/>
      <point x="281.5" y="814"/>
      <point x="281.5" y="752" type="curve" smooth="yes"/>
      <point x="281.5" y="574.5"/>
      <point x="767" y="569.5"/>
      <point x="767" y="273" type="curve" smooth="yes"/>
      <point x="767" y="66.5"/>
      <point x="549.5" y="-23.5"/>
      <point x="394" y="-23.5" type="curve" smooth="yes"/>
      <point x="221.5" y="-23.5"/>
      <point x="86" y="7"/>
    </contour>
  </outline>
</glyph>
<glyph name="x" format="1">
  <advance width="1086"/>
  <unicode hex="0078"/>
  <outline>
    <contour>
      <point x="35" y="0" type="line"/>
      <point x="53.5" y="116.5" type="line"/>
      <point x="151.5" y="177" type="line"/>
      <point x="397.5" y="469.5" type="line"/>
      <point x="156" y="778" type="line"/>
      <point x="54.5" y="826.5" type="line"/>
      <point x="74.5" y="954.5" type="line"/>
      <point x="573.5" y="954.5" type="line"/>
      <point x="555" y="831.5" type="line"/>
      <point x="477.5" y="781" type="line"/>
      <point x="608" y="610" type="line"/>
      <point x="731.5" y="780.5" type="line"/>
      <point x="654.5" y="835.5" type="line"/>
      <point x="674.5" y="954.5" type="line"/>
      <point x="1056" y="954.5" type="line"/>
      <point x="1040" y="838" type="line"/>
      <point x="941.5" y="783" type="line"/>
      <point x="712.5" y="496" type="line"/>
      <point x="968" y="169.5" type="line"/>
      <point x="1057" y="129.5" type="line"/>
      <point x="1037.5" y="0" type="line"/>
      <point x="549" y="0" type="line"/>
      <point x="570" y="120" type="line"/>
      <point x="640" y="171" type="line"/>
      <point x="505.5" y="353" type="line"/>
      <point x="373.5" y="174.5" type="line"/>
      <point x="458" y="125" type="line"/>
      <point x="435" y="0" type="line"/>
    </contour>
  </outline>
</glyph>
<glyph name="bar" format="1">
  <advance width="307"/>
  <unicode hex="007C"/>
  <outline>
    <contour>
      <point x="75" y="-364" type="line"/>
      <point x="75" y="1260" type="line"/>
      <point x="231" y="1248" type="line"/>
      <point x="231" y="-380" type="line"/>
    </contour>
  </outline>
</glyph>
<glyph name="braceright" format="1">
  <advance width="693"/>
  <unicode hex="007D"/>
  <outline>
    <contour>
      <point x="43" y="-378" type="line"/>
      <point x="54" y="-225" type="line"/>
      <point x="152" y="-220" type="line" smooth="yes"/>
      <point x="320" y="-212"/>
      <point x="111" y="322"/>
      <point x="378" y="442" type="curve"/>
      <point x="378" y="452" type="line"/>
      <point x="111" y="509"/>
      <point x="312" y="1090"/>
      <point x="164" y="1099" type="curve" smooth="yes"/>
      <point x="56" y="1104" type="line"/>
      <point x="50" y="1255" type="line"/>
      <point x="220" y="1255" type="line" smooth="yes"/>
      <point x="629" y="1255"/>
      <point x="308" y="581"/>
      <point x="592" y="527" type="curve"/>
      <point x="645" y="516" type="line"/>
      <point x="645" y="368" type="line"/>
      <point x="588" y="357" type="line" smooth="yes"/>
      <point x="312" y="305"/>
      <point x="633" y="-378"/>
      <point x="218" y="-378" type="curve" smooth="yes"/>
    </contour>
  </outline>
</glyph>
<glyph name="asciitilde" format="1">
  <advance width="989"/>
  <unicode hex="007E"/>
  <outline>
    <contour>
      <point x="58.1016" y="347" type="line"/>
      <point x="55.1016" y="476"/>
      <point x="118.102" y="687"/>
      <point x="322.102" y="654" type="curve" smooth="yes"/>
      <point x="718.102" y="590" type="line" smooth="yes"/>
      <point x="799.102" y="577"/>
      <point x="812.102" y="665"/>
      <point x="812.102" y="665" type="curve"/>
      <point x="931.102" y="655" type="line"/>
      <point x="929.102" y="464"/>
      <point x="840.102" y="320"/>
      <point x="645.102" y="355" type="curve" smooth="yes"/>
      <point x="262.102" y="424" type="line" smooth="yes"/>
      <point x="184.102" y="438"/>
      <point x="175.102" y="336"/>
      <point x="175.102" y="336" type="curve"/>
    </contour>
  </outline>
</glyph>
<glyph name="cent" format="1">
  <advance width="885"/>
  <unicode hex="00A2"/>
  <outline>
    <contour>
      <point x="47" y="433.5" type="curve" smooth="yes"/>
      <point x="47" y="757.5"/>
      <point x="300" y="976"/>
      <point x="528.5" y="976" type="curve" smooth="yes"/>
      <point x="714.5" y="976"/>
      <point x="796.5" y="867"/>
      <point x="796.5" y="758.5" type="curve" smooth="yes"/>
      <point x="796.5" y="671"/>
      <point x="733" y="618.5"/>
      <point x="637.5" y="609.5" type="curve"/>
      <point x="587" y="750.5"/>
      <point x="538" y="828"/>
      <point x="459" y="828" type="curve" smooth="yes"/>
      <point x="358.5" y="828"/>
      <point x="304" y="694.5"/>
      <point x="304" y="519" type="curve" smooth="yes"/>
      <point x="304" y="357.5"/>
      <point x="390" y="160"/>
      <point x="572.5" y="160" type="curve" smooth="yes"/>
      <point x="677" y="160"/>
      <point x="738.5" y="193"/>
      <point x="800.5" y="231" type="curve"/>
      <point x="833" y="135" type="line"/>
      <point x="781" y="49"/>
      <point x="635.5" y="-30.5"/>
      <point x="485.5" y="-30.5" type="curve" smooth="yes"/>
      <point x="188.5" y="-30.5"/>
      <point x="47" y="177"/>
    </contour>
    <contour>
      <point x="373" y="1193" type="line"/>
      <point x="559.5" y="1210" type="line"/>
      <point x="535" y="942" type="line"/>
      <point x="404" y="942" type="line"/>
    </contour>
    <contour>
      <point x="383" y="-266" type="line"/>
      <point x="409" y="0" type="line"/>
      <point x="538.5" y="0" type="line"/>
      <point x="571.5" y="-250" type="line"/>
    </contour>
  </outline>
</glyph>
<glyph name="sterling" format="1">
  <advance width="1235"/>
  <unicode hex="00A3"/>
  <outline>
    <contour>
      <point x="71" y="0" type="line"/>
      <point x="77" y="106" type="line"/>
      <point x="245" y="153" type="line"/>
      <point x="275.5" y="212.5"/>
      <point x="284.5" y="274"/>
      <point x="284.5" y="356.5" type="curve" smooth="yes"/>
      <point x="284.5" y="398.5" type="line"/>
      <point x="107.5" y="389" type="line"/>
      <point x="119" y="512.5" type="line"/>
      <point x="289" y="522.5" type="line"/>
      <point x="292.5" y="617.5" type="line" smooth="yes"/>
      <point x="304.5" y="866"/>
      <point x="505" y="973"/>
      <point x="725" y="972.5" type="curve" smooth="yes"/>
      <point x="952.5" y="972"/>
      <point x="1049" y="885.5"/>
      <point x="1049" y="780" type="curve" smooth="yes"/>
      <point x="1049" y="692"/>
      <point x="947.5" y="636.5"/>
      <point x="849" y="636" type="curve"/>
      <point x="834.5" y="780.5"/>
      <point x="780.5" y="860.5"/>
      <point x="695" y="860.5" type="curve" smooth="yes"/>
      <point x="567.5" y="860.5"/>
      <point x="547.5" y="791.5"/>
      <point x="547.5" y="596.5" type="curve" smooth="yes"/>
      <point x="547.5" y="534" type="line"/>
      <point x="794" y="544.5" type="line"/>
      <point x="784" y="421.5" type="line"/>
      <point x="545" y="408" type="line"/>
      <point x="545" y="389" type="line" smooth="yes"/>
      <point x="545" y="273.5"/>
      <point x="526.5" y="196.5"/>
      <point x="481.5" y="143" type="curve"/>
      <point x="835" y="128" type="line"/>
      <point x="958.5" y="369" type="line"/>
      <point x="1081" y="338.5" type="line"/>
      <point x="1060.5" y="0" type="line"/>
    </contour>
  </outline>
</glyph>
<glyph name="currency" format="1">
  <advance width="855"/>
  <unicode hex="00A4"/>
  <outline>
    <contour>
      <point x="40" y="739.5" type="line"/>
      <point x="164.5" y="856.5" type="line"/>
      <point x="289" y="725" type="line"/>
      <point x="326.5" y="757"/>
      <point x="383" y="776"/>
      <point x="432.5" y="776" type="curve" smooth="yes"/>
      <point x="480.5" y="776"/>
      <point x="532.5" y="760.5"/>
      <point x="566.5" y="735" type="curve"/>
      <point x="692.5" y="860.5" type="line"/>
      <point x="811.5" y="737" type="line"/>
      <point x="680" y="615.5" type="line"/>
      <point x="698.5" y="582.5"/>
      <point x="710" y="532.5"/>
      <point x="710" y="489.5" type="curve" smooth="yes"/>
      <point x="710" y="444"/>
      <point x="697.5" y="392"/>
      <point x="674" y="357" type="curve"/>
      <point x="815.5" y="222" type="line"/>
      <point x="685.5" y="107" type="line"/>
      <point x="556.5" y="245" type="line"/>
      <point x="514" y="219.5"/>
      <point x="463" y="203.5"/>
      <point x="419" y="203.5" type="curve" smooth="yes"/>
      <point x="382.5" y="203.5"/>
      <point x="338.5" y="216"/>
      <point x="302.5" y="237.5" type="curve"/>
      <point x="175" y="95" type="line"/>
      <point x="51" y="216.5" type="line"/>
      <point x="186" y="347" type="line"/>
      <point x="161" y="383.5"/>
      <point x="146" y="437"/>
      <point x="146" y="486" type="curve" smooth="yes"/>
      <point x="146" y="527.5"/>
      <point x="158.5" y="575.5"/>
      <point x="179" y="608.5" type="curve"/>
    </contour>
    <contour>
      <point x="294.5" y="492.5" type="curve" smooth="yes"/>
      <point x="294.5" y="401"/>
      <point x="352.5" y="338.5"/>
      <point x="426" y="338.5" type="curve" smooth="yes"/>
      <point x="502.5" y="338.5"/>
      <point x="559" y="397"/>
      <point x="559" y="486" type="curve" smooth="yes"/>
      <point x="559" y="580.5"/>
      <point x="503" y="640"/>
      <point x="426" y="640" type="curve" smooth="yes"/>
      <point x="352.5" y="640"/>
      <point x="294.5" y="581.5"/>
    </contour>
  </outline>
</glyph>
<glyph name="brokenbar" format="1">
  <advance width="350"/>
  <unicode hex="00A6"/>
  <outline>
    <contour>
      <point x="91.5" y="-358.5" type="line"/>
      <point x="91.5" y="419" type="line"/>
      <point x="260.5" y="399" type="line"/>
      <point x="260.5" y="-379.5" type="line"/>
    </contour>
    <contour>
      <point x="91.5" y="534" type="line"/>
      <point x="91.5" y="1267" type="line"/>
      <point x="258.5" y="1248" type="line"/>
      <point x="258.5" y="517" type="line"/>
    </contour>
  </outline>
</glyph>
<glyph name="section" format="1">
  <advance width="971"/>
  <unicode hex="00A7"/>
  <outline>
    <contour>
      <point x="59.5" y="-233.5" type="curve"/>
      <point x="76.5" y="55.5" type="line"/>
      <point x="221" y="31" type="line"/>
      <point x="263.5" y="-164.5" type="line"/>
      <point x="292" y="-202"/>
      <point x="376" y="-246"/>
      <point x="463.5" y="-246" type="curve" smooth="yes"/>
      <point x="554" y="-246"/>
      <point x="654.5" y="-199.5"/>
      <point x="654.5" y="-76" type="curve" smooth="yes"/>
      <point x="654.5" y="176"/>
      <point x="-30.5" y="130.5"/>
      <point x="80.5" y="610" type="curve"/>
      <point x="453.5" y="424" type="line" smooth="yes"/>
      <point x="712" y="300"/>
      <point x="910" y="238"/>
      <point x="910" y="3" type="curve" smooth="yes"/>
      <point x="910" y="-268.5"/>
      <point x="633.5" y="-388"/>
      <point x="426" y="-388" type="curve" smooth="yes"/>
      <point x="282" y="-388"/>
      <point x="123.5" y="-313.5"/>
    </contour>
    <contour>
      <point x="78" y="912.5" type="curve" smooth="yes"/>
      <point x="78" y="1167.5"/>
      <point x="273.5" y="1267.5"/>
      <point x="506.5" y="1267.5" type="curve" smooth="yes"/>
      <point x="632" y="1267.5"/>
      <point x="750" y="1234.5"/>
      <point x="820" y="1178" type="curve"/>
      <point x="820" y="1162"/>
      <point x="802.5" y="893"/>
      <point x="802.5" y="893" type="curve"/>
      <point x="667.5" y="910.5" type="line"/>
      <point x="630" y="1079" type="line"/>
      <point x="605" y="1108"/>
      <point x="538" y="1151"/>
      <point x="469.5" y="1151" type="curve" smooth="yes"/>
      <point x="390" y="1151"/>
      <point x="322.5" y="1107.5"/>
      <point x="322.5" y="995" type="curve" smooth="yes"/>
      <point x="322.5" y="727"/>
      <point x="1042" y="800"/>
      <point x="900" y="310" type="curve"/>
      <point x="437.5" y="536" type="line" smooth="yes"/>
      <point x="243.5" y="630"/>
      <point x="78" y="715"/>
    </contour>
  </outline>
</glyph>
<glyph name="dieresis" format="1">
  <advance width="683"/>
  <unicode hex="00A8"/>
  <outline>
    <contour>
      <point x="103.8" y="1464.95" type="curve" smooth="yes"/>
      <point x="103.8" y="1511.2"/>
      <point x="141.48" y="1557"/>
      <point x="215.27" y="1557" type="curve" smooth="yes"/>
      <point x="294.36" y="1557"/>
      <point x="330.21" y="1511.4"/>
      <point x="330.21" y="1466" type="curve" smooth="yes"/>
      <point x="330.21" y="1411.75"/>
      <point x="292.38" y="1370.4"/>
      <point x="214.94" y="1370.4" type="curve" smooth="yes"/>
      <point x="136.02" y="1370.4"/>
      <point x="103.8" y="1414.9"/>
    </contour>
    <contour>
      <point x="392.3" y="1464.95" type="curve" smooth="yes"/>
      <point x="392.3" y="1511.2"/>
      <point x="429.98" y="1557"/>
      <point x="503.77" y="1557" type="curve" smooth="yes"/>
      <point x="582.86" y="1557"/>
      <point x="619.21" y="1511.4"/>
      <point x="619.21" y="1466" type="curve" smooth="yes"/>
      <point x="619.21" y="1411.75"/>
      <point x="580.88" y="1370.4"/>
      <point x="503.44" y="1370.4" type="curve" smooth="yes"/>
      <point x="424.52" y="1370.4"/>
      <point x="392.3" y="1414.9"/>
    </contour>
  </outline>
</glyph>
<glyph name="copyright" format="1">
  <advance width="1443"/>
  <unicode hex="00A9"/>
  <outline>
    <contour>
      <point x="369.486" y="660.345" type="curve" smooth="yes"/>
      <point x="369.486" y="933.695"/>
      <point x="582.824" y="1093.99"/>
      <point x="775.082" y="1093.99" type="curve" smooth="yes"/>
      <point x="918.432" y="1093.99"/>
      <point x="997.696" y="1018.06"/>
      <point x="997.696" y="926.946" type="curve" smooth="yes"/>
      <point x="997.696" y="852.703"/>
      <point x="939.513" y="816.425"/>
      <point x="858.562" y="808.831" type="curve"/>
      <point x="821.46" y="915.135"/>
      <point x="783.514" y="973.349"/>
      <point x="722.801" y="973.349" type="curve" smooth="yes"/>
      <point x="635.948" y="973.349"/>
      <point x="586.197" y="894.043"/>
      <point x="586.197" y="737.119" type="curve" smooth="yes"/>
      <point x="586.197" y="600.443"/>
      <point x="658.716" y="428.333"/>
      <point x="812.185" y="428.333" type="curve" smooth="yes"/>
      <point x="899.881" y="428.333"/>
      <point x="948.788" y="451.956"/>
      <point x="1001.07" y="484.016" type="curve"/>
      <point x="1028.05" y="415.678" type="line"/>
      <point x="984.204" y="343.122"/>
      <point x="866.151" y="280.689"/>
      <point x="739.666" y="280.689" type="curve" smooth="yes"/>
      <point x="489.226" y="280.689"/>
      <point x="369.486" y="444.363"/>
    </contour>
    <contour>
      <point x="49" y="666" type="curve" smooth="yes"/>
      <point x="49" y="1078"/>
      <point x="353" y="1358"/>
      <point x="723" y="1358" type="curve" smooth="yes"/>
      <point x="1135" y="1358"/>
      <point x="1391" y="1074"/>
      <point x="1391" y="674" type="curve" smooth="yes"/>
      <point x="1391" y="318"/>
      <point x="1097" y="-2"/>
      <point x="715" y="-2" type="curve" smooth="yes"/>
      <point x="308" y="-2"/>
      <point x="49" y="272"/>
    </contour>
    <contour>
      <point x="214" y="682" type="curve" smooth="yes"/>
      <point x="214" y="336"/>
      <point x="428" y="131"/>
      <point x="721" y="131" type="curve" smooth="yes"/>
      <point x="1003" y="131"/>
      <point x="1235" y="336"/>
      <point x="1235" y="664" type="curve" smooth="yes"/>
      <point x="1235" y="970"/>
      <point x="1065" y="1230"/>
      <point x="717" y="1230" type="curve" smooth="yes"/>
      <point x="413" y="1230"/>
      <point x="214" y="992"/>
    </contour>
  </outline>
</glyph>
<glyph name="ordfeminine" format="1">
  <advance width="799"/>
  <unicode hex="00AA"/>
  <outline>
    <contour>
      <point x="51" y="672" type="curve" smooth="yes"/>
      <point x="51" y="802"/>
      <point x="161" y="935"/>
      <point x="421" y="934" type="curve"/>
      <point x="421" y="989" type="line" smooth="yes"/>
      <point x="421" y="1080"/>
      <point x="398" y="1151"/>
      <point x="320" y="1151" type="curve" smooth="yes"/>
      <point x="266" y="1151"/>
      <point x="256" y="1108"/>
      <point x="245" y="973" type="curve"/>
      <point x="157" y="969"/>
      <point x="79" y="998"/>
      <point x="79" y="1086" type="curve" smooth="yes"/>
      <point x="79" y="1176"/>
      <point x="267" y="1269"/>
      <point x="409" y="1269" type="curve" smooth="yes"/>
      <point x="543" y="1269"/>
      <point x="633" y="1201"/>
      <point x="633" y="1024" type="curve" smooth="yes"/>
      <point x="633" y="787" type="line" smooth="yes"/>
      <point x="633" y="705"/>
      <point x="646" y="678"/>
      <point x="719" y="664" type="curve" smooth="yes"/>
      <point x="752" y="658" type="line"/>
      <point x="736" y="559" type="line"/>
      <point x="693" y="527"/>
      <point x="658" y="513"/>
      <point x="594" y="513" type="curve" smooth="yes"/>
      <point x="501" y="513"/>
      <point x="457" y="558"/>
      <point x="445" y="614" type="curve" smooth="yes"/>
      <point x="443" y="625" type="line"/>
      <point x="434" y="627" type="line"/>
      <point x="411" y="574"/>
      <point x="335" y="511"/>
      <point x="223" y="511" type="curve" smooth="yes"/>
      <point x="125" y="511"/>
      <point x="51" y="565"/>
    </contour>
    <contour>
      <point x="264" y="733" type="curve" smooth="yes"/>
      <point x="264" y="697"/>
      <point x="282" y="659"/>
      <point x="334" y="659" type="curve" smooth="yes"/>
      <point x="374" y="659"/>
      <point x="396" y="681"/>
      <point x="421" y="704" type="curve"/>
      <point x="421" y="854" type="line"/>
      <point x="295" y="835"/>
      <point x="264" y="789"/>
    </contour>
  </outline>
</glyph>
<glyph name="logicalnot" format="1">
  <advance width="908"/>
  <unicode hex="00AC"/>
  <outline>
    <contour>
      <point x="56" y="509" type="line"/>
      <point x="68" y="662" type="line"/>
      <point x="841" y="662" type="line"/>
      <point x="843" y="306" type="line"/>
      <point x="680" y="286" type="line"/>
      <point x="680" y="509" type="line"/>
    </contour>
  </outline>
</glyph>
<glyph name="two.superior" format="1">
  <advance width="725"/>
  <unicode hex="00B2"/>
  <outline>
    <contour>
      <point x="53" y="672" type="line"/>
      <point x="189" y="775" type="line" smooth="yes"/>
      <point x="310" y="867"/>
      <point x="377" y="958"/>
      <point x="377" y="1024" type="curve" smooth="yes"/>
      <point x="377" y="1079"/>
      <point x="357" y="1129"/>
      <point x="287" y="1129" type="curve" smooth="yes"/>
      <point x="253" y="1129"/>
      <point x="228" y="1114"/>
      <point x="211" y="1095" type="curve"/>
      <point x="181" y="944" type="line"/>
      <point x="92" y="952" type="line"/>
      <point x="63" y="1150" type="line"/>
      <point x="121" y="1222"/>
      <point x="249" y="1266"/>
      <point x="371" y="1266" type="curve" smooth="yes"/>
      <point x="555" y="1266"/>
      <point x="641" y="1175"/>
      <point x="641" y="1078" type="curve" smooth="yes"/>
      <point x="641" y="925"/>
      <point x="480" y="816"/>
      <point x="340" y="738" type="curve" smooth="yes"/>
      <point x="267" y="700" type="line"/>
      <point x="502" y="690" type="line"/>
      <point x="585" y="826" type="line"/>
      <point x="669" y="813" type="line"/>
      <point x="643" y="530" type="line"/>
      <point x="57" y="530" type="line"/>
    </contour>
  </outline>
</glyph>
<glyph name="three.superior" format="1">
  <advance width="724"/>
  <unicode hex="00B3"/>
  <outline>
    <contour>
      <point x="54" y="545" type="curve"/>
      <point x="92" y="783" type="line"/>
      <point x="208" y="775" type="line"/>
      <point x="218" y="647" type="line"/>
      <point x="232" y="635"/>
      <point x="256" y="625"/>
      <point x="282" y="625" type="curve" smooth="yes"/>
      <point x="348" y="625"/>
      <point x="394" y="665"/>
      <point x="394" y="732" type="curve" smooth="yes"/>
      <point x="394" y="798"/>
      <point x="330" y="855"/>
      <point x="232" y="845" type="curve"/>
      <point x="206" y="937" type="line"/>
      <point x="280" y="953"/>
      <point x="371" y="994"/>
      <point x="371" y="1068" type="curve" smooth="yes"/>
      <point x="371" y="1126"/>
      <point x="334" y="1170"/>
      <point x="278" y="1170" type="curve" smooth="yes"/>
      <point x="260" y="1170"/>
      <point x="237" y="1169"/>
      <point x="223" y="1159" type="curve"/>
      <point x="195" y="1006" type="line"/>
      <point x="84" y="1011" type="line"/>
      <point x="59" y="1196" type="line"/>
      <point x="93" y="1244"/>
      <point x="229" y="1296"/>
      <point x="334" y="1296" type="curve" smooth="yes"/>
      <point x="502" y="1296"/>
      <point x="634" y="1252"/>
      <point x="634" y="1136" type="curve" smooth="yes"/>
      <point x="634" y="1034"/>
      <point x="522" y="966"/>
      <point x="420" y="940" type="curve"/>
      <point x="420" y="932" type="line"/>
      <point x="602" y="929"/>
      <point x="670" y="866"/>
      <point x="672" y="756" type="curve" smooth="yes"/>
      <point x="674" y="613"/>
      <point x="497" y="497"/>
      <point x="260" y="497" type="curve" smooth="yes"/>
      <point x="173" y="497"/>
      <point x="94" y="515"/>
    </contour>
  </outline>
</glyph>
<glyph name="acute" format="1">
  <advance width="487"/>
  <unicode hex="00B4"/>
  <outline>
    <contour>
      <point x="75" y="1390" type="line"/>
      <point x="189" y="1704" type="line"/>
      <point x="411" y="1676" type="line"/>
      <point x="229" y="1363" type="line"/>
    </contour>
  </outline>
</glyph>
<glyph name="paragraph" format="1">
  <advance width="1381"/>
  <unicode hex="00B6"/>
  <outline>
    <contour>
      <point x="98.5" y="615" type="curve" smooth="yes"/>
      <point x="98.5" y="834.5"/>
      <point x="288" y="954.5"/>
      <point x="554.5" y="954.5" type="curve" smooth="yes"/>
      <point x="874" y="954.5" type="line"/>
      <point x="874" y="0" type="line"/>
      <point x="430.5" y="0" type="line"/>
      <point x="439.5" y="105" type="line"/>
      <point x="654" y="168.5" type="line"/>
      <point x="654" y="822.5" type="line"/>
      <point x="614.5" y="826.5"/>
      <point x="579.5" y="829"/>
      <point x="557.5" y="829" type="curve" smooth="yes"/>
      <point x="446.5" y="829"/>
      <point x="347.5" y="789"/>
      <point x="347.5" y="650" type="curve" smooth="yes"/>
      <point x="347.5" y="542.5"/>
      <point x="406" y="457"/>
      <point x="586.5" y="448" type="curve"/>
      <point x="566" y="306.5" type="line"/>
      <point x="255.5" y="306.5"/>
      <point x="98.5" y="418"/>
    </contour>
    <contour>
      <point x="951.5" y="0" type="line"/>
      <point x="951.5" y="954.5" type="line"/>
      <point x="1325" y="954.5" type="line"/>
      <point x="1310" y="840" type="line"/>
      <point x="1159" y="785.5" type="line"/>
      <point x="1159" y="163" type="line"/>
      <point x="1324" y="113" type="line"/>
      <point x="1312.5" y="0" type="line"/>
    </contour>
  </outline>
</glyph>
<glyph name="periodcentered" format="1">
  <advance width="473"/>
  <unicode hex="00B7"/>
  <outline>
    <contour>
      <point x="100" y="504.5" type="curve" smooth="yes"/>
      <point x="100" y="569"/>
      <point x="151" y="638"/>
      <point x="264.5" y="638" type="curve" smooth="yes"/>
      <point x="384" y="638"/>
      <point x="434.5" y="570"/>
      <point x="434.5" y="506" type="curve" smooth="yes"/>
      <point x="434.5" y="430"/>
      <point x="381" y="366.5"/>
      <point x="264" y="366.5" type="curve" smooth="yes"/>
      <point x="144" y="366.5"/>
      <point x="100" y="434.5"/>
    </contour>
  </outline>
</glyph>
<glyph name="cedilla" format="1">
  <advance width="436"/>
  <unicode hex="00B8"/>
  <outline>
    <contour>
      <point x="56" y="-304" type="line"/>
      <point x="114" y="-296"/>
      <point x="178" y="-272"/>
      <point x="178" y="-242" type="curve" smooth="yes"/>
      <point x="178" y="-205"/>
      <point x="106" y="-168"/>
      <point x="53" y="-141" type="curve"/>
      <point x="236" y="3" type="line"/>
      <point x="350" y="3" type="line"/>
      <point x="264" y="-80" type="line"/>
      <point x="308" y="-104"/>
      <point x="376" y="-142"/>
      <point x="376" y="-216" type="curve" smooth="yes"/>
      <point x="376" y="-324"/>
      <point x="245" y="-367"/>
      <point x="84" y="-388" type="curve"/>
    </contour>
  </outline>
</glyph>
<glyph name="ordmasculine" format="1">
  <advance width="849"/>
  <unicode hex="00BA"/>
  <outline>
    <contour>
      <point x="51" y="888" type="curve" smooth="yes"/>
      <point x="51" y="1132"/>
      <point x="255" y="1274"/>
      <point x="439" y="1274" type="curve" smooth="yes"/>
      <point x="664" y="1274"/>
      <point x="797" y="1138"/>
      <point x="797" y="904" type="curve" smooth="yes"/>
      <point x="797" y="666"/>
      <point x="635" y="510"/>
      <point x="420" y="510" type="curve" smooth="yes"/>
      <point x="161" y="510"/>
      <point x="51" y="686"/>
    </contour>
    <contour>
      <point x="280" y="942" type="curve" smooth="yes"/>
      <point x="280" y="763"/>
      <point x="314" y="627"/>
      <point x="447" y="627" type="curve" smooth="yes"/>
      <point x="541" y="627"/>
      <point x="566" y="704"/>
      <point x="566" y="818" type="curve" smooth="yes"/>
      <point x="566" y="970"/>
      <point x="547" y="1148"/>
      <point x="406" y="1148" type="curve" smooth="yes"/>
      <point x="303" y="1148"/>
      <point x="280" y="1060"/>
    </contour>
  </outline>
</glyph>
<glyph name="threequarters" format="1">
  <advance width="1640"/>
  <unicode hex="00BE"/>
  <outline>
    <contour>
      <point x="49" y="532" type="curve"/>
      <point x="87" y="770" type="line"/>
      <point x="203" y="762" type="line"/>
      <point x="213" y="634" type="line"/>
      <point x="227" y="622"/>
      <point x="251" y="612"/>
      <point x="277" y="612" type="curve" smooth="yes"/>
      <point x="343" y="612"/>
      <point x="389" y="651"/>
      <point x="389" y="718" type="curve" smooth="yes"/>
      <point x="389" y="784"/>
      <point x="325" y="842"/>
      <point x="227" y="832" type="curve"/>
      <point x="201" y="924" type="line"/>
      <point x="275" y="940"/>
      <point x="366" y="980"/>
      <point x="366" y="1054" type="curve" smooth="yes"/>
      <point x="366" y="1112"/>
      <point x="329" y="1157"/>
      <point x="273" y="1157" type="curve" smooth="yes"/>
      <point x="255" y="1157"/>
      <point x="232" y="1156"/>
      <point x="218" y="1146" type="curve"/>
      <point x="190" y="992" type="line"/>
      <point x="79" y="998" type="line"/>
      <point x="54" y="1183" type="line"/>
      <point x="88" y="1231"/>
      <point x="224" y="1282"/>
      <point x="329" y="1282" type="curve" smooth="yes"/>
      <point x="497" y="1282"/>
      <point x="629" y="1238"/>
      <point x="629" y="1122" type="curve" smooth="yes"/>
      <point x="629" y="1020"/>
      <point x="517" y="953"/>
      <point x="415" y="927" type="curve"/>
      <point x="415" y="918" type="line"/>
      <point x="597" y="915"/>
      <point x="665" y="853"/>
      <point x="667" y="743" type="curve" smooth="yes"/>
      <point x="669" y="600"/>
      <point x="492" y="484"/>
      <point x="255" y="484" type="curve" smooth="yes"/>
      <point x="168" y="484"/>
      <point x="89" y="502"/>
    </contour>
    <contour>
      <point x="257" y="12" type="line"/>
      <point x="739" y="588" type="line"/>
      <point x="1207" y="1208" type="line"/>
      <point x="1445" y="1206" type="line"/>
      <point x="1445" y="1154" type="line"/>
      <point x="973" y="591" type="line"/>
      <point x="541" y="-26" type="line"/>
    </contour>
    <contour>
      <point x="921" y="282" type="line"/>
      <point x="1375" y="722" type="line"/>
      <point x="1459" y="704" type="line"/>
      <point x="1454" y="640"/>
      <point x="1449" y="526"/>
      <point x="1449" y="428" type="curve" smooth="yes"/>
      <point x="1449" y="293" type="line"/>
      <point x="1597" y="293" type="line"/>
      <point x="1588" y="160" type="line"/>
      <point x="1449" y="160" type="line"/>
      <point x="1449" y="73" type="line"/>
      <point x="1559" y="50" type="line"/>
      <point x="1553" y="-30" type="line"/>
      <point x="1103" y="-30" type="line"/>
      <point x="1107" y="44" type="line"/>
      <point x="1225" y="74" type="line"/>
      <point x="1225" y="163" type="line"/>
      <point x="935" y="163" type="line"/>
    </contour>
    <contour>
      <point x="1076" y="274" type="line"/>
      <point x="1233" y="274" type="line"/>
      <point x="1233" y="474" type="line"/>
    </contour>
  </outline>
</glyph>
<glyph name="AE" format="1">
  <advance width="1880"/>
  <unicode hex="00C6"/>
  <outline>
    <contour>
      <point x="48" y="0" type="line"/>
      <point x="62" y="119" type="line"/>
      <point x="198" y="184" type="line"/>
      <point x="794" y="1073" type="line"/>
      <point x="598" y="1131" type="line"/>
      <point x="613" y="1244" type="line"/>
      <point x="1770" y="1244" type="line"/>
      <point x="1738" y="876" type="line"/>
      <point x="1610" y="896" type="line"/>
      <point x="1548" y="1112" type="line"/>
      <point x="1204" y="1112" type="line"/>
      <point x="1213" y="694" type="line"/>
      <point x="1408" y="702" type="line"/>
      <point x="1444" y="765" type="line"/>
      <point x="1580" y="780" type="line"/>
      <point x="1547" y="466" type="line"/>
      <point x="1422" y="466" type="line"/>
      <point x="1392" y="556" type="line"/>
      <point x="1216" y="561" type="line"/>
      <point x="1224" y="147" type="line"/>
      <point x="1590" y="138" type="line"/>
      <point x="1713" y="378" type="line"/>
      <point x="1836" y="362" type="line"/>
      <point x="1806" y="0" type="line"/>
      <point x="784" y="0" type="line"/>
      <point x="795" y="106" type="line"/>
      <point x="960" y="169" type="line"/>
      <point x="954" y="458" type="line"/>
      <point x="573" y="458" type="line"/>
      <point x="398" y="184" type="line"/>
      <point x="582" y="116" type="line"/>
      <point x="568" y="0" type="line"/>
    </contour>
    <contour>
      <point x="651" y="592" type="line"/>
      <point x="948" y="592" type="line"/>
      <point x="942" y="1033" type="line"/>
    </contour>
  </outline>
</glyph>
<glyph name="Eth" format="1">
  <advance width="1453"/>
  <unicode hex="00D0"/>
  <outline>
    <contour>
      <point x="61" y="519" type="line"/>
      <point x="74" y="656" type="line"/>
      <point x="241" y="670" type="line"/>
      <point x="241" y="1054" type="line"/>
      <point x="69" y="1092" type="line"/>
      <point x="77" y="1208" type="line"/>
      <point x="273" y="1239"/>
      <point x="485" y="1259"/>
      <point x="629" y="1259" type="curve" smooth="yes"/>
      <point x="1245" y="1259"/>
      <point x="1407" y="963"/>
      <point x="1407" y="655" type="curve" smooth="yes"/>
      <point x="1407" y="321"/>
      <point x="1114" y="0"/>
      <point x="612" y="0" type="curve" smooth="yes"/>
      <point x="47" y="0" type="line"/>
      <point x="65" y="106" type="line"/>
      <point x="241" y="185" type="line"/>
      <point x="241" y="534" type="line"/>
    </contour>
    <contour>
      <point x="521" y="153" type="line"/>
      <point x="665" y="153" type="line" smooth="yes"/>
      <point x="1009" y="153"/>
      <point x="1097" y="400"/>
      <point x="1097" y="598" type="curve" smooth="yes"/>
      <point x="1097" y="849"/>
      <point x="941" y="1107"/>
      <point x="591" y="1107" type="curve" smooth="yes"/>
      <point x="551" y="1107"/>
      <point x="561" y="1103"/>
      <point x="521" y="1101" type="curve"/>
      <point x="521" y="692" type="line"/>
      <point x="749" y="715" type="line"/>
      <point x="734" y="575" type="line"/>
      <point x="521" y="558" type="line"/>
    </contour>
  </outline>
</glyph>
<glyph name="Oslash" format="1">
  <advance width="1437"/>
  <unicode hex="00D8"/>
  <outline>
    <contour>
      <point x="135.003" y="-34" type="line"/>
      <point x="303.003" y="202" type="line"/>
      <point x="409.003" y="230" type="line"/>
      <point x="980.003" y="1098" type="line"/>
      <point x="985.003" y="1168" type="line"/>
      <point x="1085" y="1293" type="line"/>
      <point x="1282" y="1272" type="line"/>
      <point x="1114" y="1060" type="line"/>
      <point x="1032" y="1029" type="line"/>
      <point x="453.003" y="142" type="line"/>
      <point x="425.003" y="74" type="line"/>
      <point x="331.003" y="-60" type="line"/>
    </contour>
    <contour>
      <point x="383.003" y="674" type="curve" smooth="yes"/>
      <point x="383.003" y="454"/>
      <point x="464.003" y="121"/>
      <point x="728.003" y="121" type="curve" smooth="yes"/>
      <point x="966.003" y="121"/>
      <point x="1047" y="309"/>
      <point x="1047" y="573" type="curve" smooth="yes"/>
      <point x="1047" y="788"/>
      <point x="969.003" y="1135"/>
      <point x="699.003" y="1135" type="curve" smooth="yes"/>
      <point x="454.003" y="1135"/>
      <point x="383.003" y="936"/>
    </contour>
    <contour>
      <point x="47.0029" y="619" type="curve"/>
      <point x="47.0029" y="1004"/>
      <point x="313.003" y="1270"/>
      <point x="747.003" y="1270" type="curve" smooth="yes"/>
      <point x="1135" y="1270"/>
      <point x="1390" y="1031"/>
      <point x="1390" y="616" type="curve" smooth="yes"/>
      <point x="1390" y="235"/>
      <point x="1102" y="-27"/>
      <point x="677.003" y="-27" type="curve"/>
      <point x="270.003" y="-27"/>
      <point x="46.0029" y="248"/>
    </contour>
  </outline>
</glyph>
<glyph name="germandbls" format="1">
  <advance width="1263"/>
  <unicode hex="00DF"/>
  <outline>
    <contour>
      <point x="21" y="0" type="line"/>
      <point x="31.5" y="104.5" type="line"/>
      <point x="145.5" y="151" type="line"/>
      <point x="145.5" y="547.5" type="line" smooth="yes"/>
      <point x="145.5" y="845.5"/>
      <point x="385.5" y="973"/>
      <point x="719.5" y="973" type="curve" smooth="yes"/>
      <point x="997.5" y="973"/>
      <point x="1195.5" y="923.5"/>
      <point x="1195.5" y="774.5" type="curve" smooth="yes"/>
      <point x="1195.5" y="695"/>
      <point x="1153" y="646.5"/>
      <point x="1060" y="618.5" type="curve"/>
      <point x="1010.5" y="734.5"/>
      <point x="950.5" y="828"/>
      <point x="861.5" y="828" type="curve" smooth="yes"/>
      <point x="807" y="828"/>
      <point x="761.5" y="796"/>
      <point x="761.5" y="732.5" type="curve" smooth="yes"/>
      <point x="761.5" y="554.5"/>
      <point x="1238" y="520"/>
      <point x="1238" y="263" type="curve" smooth="yes"/>
      <point x="1238" y="54"/>
      <point x="1015" y="-23.5"/>
      <point x="857" y="-23.5" type="curve" smooth="yes"/>
      <point x="674.5" y="-23.5"/>
      <point x="554" y="6"/>
      <point x="503.5" y="50.5" type="curve"/>
      <point x="538.5" y="334" type="line"/>
      <point x="678" y="312.5" type="line"/>
      <point x="707" y="159.5" type="line"/>
      <point x="738.5" y="128.5"/>
      <point x="781.5" y="110.5"/>
      <point x="855" y="110.5" type="curve" smooth="yes"/>
      <point x="921" y="110.5"/>
      <point x="980.5" y="133.5"/>
      <point x="980.5" y="193.5" type="curve" smooth="yes"/>
      <point x="980.5" y="327"/>
      <point x="520" y="372"/>
      <point x="520" y="641.5" type="curve" smooth="yes"/>
      <point x="520" y="759.5"/>
      <point x="597" y="830"/>
      <point x="665.5" y="848" type="curve"/>
      <point x="666.5" y="854.5" type="line"/>
      <point x="499.183" y="866.288"/>
      <point x="420" y="787.995"/>
      <point x="420" y="570.5" type="curve" smooth="yes"/>
      <point x="420" y="0" type="line"/>
    </contour>
  </outline>
</glyph>
<glyph name="aacute" format="1">
  <advance width="1126"/>
  <unicode hex="00E1"/>
  <outline>
    <contour>
      <point x="35" y="0" type="line"/>
      <point x="49" y="106" type="line"/>
      <point x="159" y="185" type="line"/>
      <point x="465" y="925.5" type="line"/>
      <point x="709" y="973.5" type="line"/>
      <point x="994.5" y="181" type="line"/>
      <point x="1092" y="112.5" type="line"/>
      <point x="1081.5" y="-1" type="line"/>
      <point x="583" y="-1" type="line"/>
      <point x="597" y="105" type="line"/>
      <point x="700.5" y="180.5" type="line"/>
      <point x="528.5" y="706" type="line"/>
      <point x="342" y="182" type="line"/>
      <point x="464.5" y="114" type="line"/>
      <point x="451.5" y="0" type="line"/>
    </contour>
    <contour>
      <point x="311.5" y="326" type="line"/>
      <point x="365.5" y="436.5" type="line"/>
      <point x="692" y="436.5" type="line"/>
      <point x="742" y="326" type="line"/>
    </contour>
    <contour>
      <point x="495.5" y="1057.85" type="line"/>
      <point x="629.5" y="1372.85" type="line"/>
      <point x="860" y="1348.35" type="line"/>
      <point x="638" y="1028.85" type="line"/>
    </contour>
  </outline>
</glyph>
<glyph name="aring" format="1">
  <advance width="1126"/>
  <unicode hex="00E5"/>
  <outline>
    <contour>
      <point x="35" y="0" type="line"/>
      <point x="49" y="106" type="line"/>
      <point x="159" y="185" type="line"/>
      <point x="465" y="925.5" type="line"/>
      <point x="709" y="973.5" type="line"/>
      <point x="994.5" y="181" type="line"/>
      <point x="1092" y="112.5" type="line"/>
      <point x="1081.5" y="-1" type="line"/>
      <point x="583" y="-1" type="line"/>
      <point x="597" y="105" type="line"/>
      <point x="700.5" y="180.5" type="line"/>
      <point x="528.5" y="706" type="line"/>
      <point x="342" y="182" type="line"/>
      <point x="464.5" y="114" type="line"/>
      <point x="451.5" y="0" type="line"/>
    </contour>
    <contour>
      <point x="311.5" y="326" type="line"/>
      <point x="365.5" y="436.5" type="line"/>
      <point x="692" y="436.5" type="line"/>
      <point x="742" y="326" type="line"/>
    </contour>
    <contour>
      <point x="365" y="1184.5" type="curve" smooth="yes"/>
      <point x="365" y="1277.5"/>
      <point x="443" y="1357"/>
      <point x="590.5" y="1357" type="curve" smooth="yes"/>
      <point x="739.5" y="1357"/>
      <point x="811" y="1292"/>
      <point x="811" y="1193.5" type="curve" smooth="yes"/>
      <point x="811" y="1105.5"/>
      <point x="737" y="1020.5"/>
      <point x="580" y="1020.5" type="curve" smooth="yes"/>
      <point x="431.5" y="1020.5"/>
      <point x="365" y="1084"/>
    </contour>
    <contour>
      <point x="506" y="1192.5" type="curve" smooth="yes"/>
      <point x="506" y="1140"/>
      <point x="538" y="1100"/>
      <point x="587.5" y="1100" type="curve" smooth="yes"/>
      <point x="630.5" y="1100"/>
      <point x="664" y="1130"/>
      <point x="664" y="1185.5" type="curve" smooth="yes"/>
      <point x="664" y="1235"/>
      <point x="629" y="1278"/>
      <point x="579.5" y="1278" type="curve" smooth="yes"/>
      <point x="535" y="1278"/>
      <point x="506" y="1237.5"/>
    </contour>
  </outline>
</glyph>
<glyph name="ae" format="1">
  <advance width="1508"/>
  <unicode hex="00E6"/>
  <outline>
    <contour>
      <point x="42.5" y="-0.5" type="line"/>
      <point x="57" y="119" type="line"/>
      <point x="167" y="184" type="line"/>
      <point x="576.5" y="783.5" type="line"/>
      <point x="409.5" y="840" type="line"/>
      <point x="425" y="953" type="line"/>
      <point x="1430" y="953" type="line"/>
      <point x="1404.5" y="632.5" type="line"/>
      <point x="1269.5" y="652" type="line"/>
      <point x="1212.5" y="821" type="line"/>
      <point x="969.5" y="821" type="line"/>
      <point x="980" y="526.5" type="line"/>
      <point x="1128" y="534.5" type="line"/>
      <point x="1152.5" y="576" type="line"/>
      <point x="1267.5" y="591.5" type="line"/>
      <point x="1234" y="339" type="line"/>
      <point x="1131.5" y="340.5" type="line"/>
      <point x="1114" y="405" type="line"/>
      <point x="986" y="412" type="line"/>
      <point x="994.5" y="149.5" type="line"/>
      <point x="1243.5" y="138" type="line"/>
      <point x="1345" y="327" type="line"/>
      <point x="1474.5" y="312" type="line"/>
      <point x="1449.5" y="0" type="line"/>
      <point x="606.5" y="0" type="line"/>
      <point x="617" y="106" type="line"/>
      <point x="742" y="169" type="line"/>
      <point x="737.5" y="333.5" type="line"/>
      <point x="461.5" y="333.5" type="line"/>
      <point x="367.5" y="184.5" type="line"/>
      <point x="507" y="116.5" type="line"/>
      <point x="492" y="-0.5" type="line"/>
    </contour>
    <contour>
      <point x="534" y="448" type="line"/>
      <point x="733" y="448" type="line"/>
      <point x="723.5" y="748.5" type="line"/>
    </contour>
  </outline>
</glyph>
<glyph name="egrave" format="1">
  <advance width="940"/>
  <unicode hex="00E8"/>
  <outline>
    <contour>
      <point x="31" y="843" type="line"/>
      <point x="46" y="953" type="line"/>
      <point x="941" y="953" type="line"/>
      <point x="915.5" y="632.5" type="line"/>
      <point x="780.5" y="652" type="line"/>
      <point x="723.5" y="821" type="line"/>
      <point x="455.5" y="821" type="line"/>
      <point x="455.5" y="531" type="line"/>
      <point x="606.5" y="539" type="line"/>
      <point x="631" y="580.5" type="line"/>
      <point x="748.5" y="596.5" type="line"/>
      <point x="715" y="344" type="line"/>
      <point x="613" y="345.5" type="line"/>
      <point x="592.5" y="410.5" type="line"/>
      <point x="455.5" y="418.5" type="line"/>
      <point x="455.5" y="149.5" type="line"/>
      <point x="729.5" y="138" type="line"/>
      <point x="831" y="327" type="line"/>
      <point x="960.5" y="312" type="line"/>
      <point x="935.5" y="0" type="line"/>
      <point x="42.5" y="0" type="line"/>
      <point x="51.5" y="116" type="line"/>
      <point x="172" y="169" type="line"/>
      <point x="172" y="787" type="line"/>
    </contour>
    <contour>
      <point x="243.5" y="1349.5" type="line"/>
      <point x="476" y="1373.5" type="line"/>
      <point x="614.5" y="1054.5" type="line"/>
      <point x="469.5" y="1024" type="line"/>
    </contour>
  </outline>
</glyph>
<glyph name="edieresis" format="1">
  <advance width="1002"/>
  <unicode hex="00EB"/>
  <outline>
    <contour>
      <point x="35" y="843" type="line"/>
      <point x="50" y="953" type="line"/>
      <point x="945" y="953" type="line"/>
      <point x="919.5" y="632.5" type="line"/>
      <point x="784.5" y="652" type="line"/>
      <point x="727.5" y="821" type="line"/>
      <point x="459.5" y="821" type="line"/>
      <point x="459.5" y="531" type="line"/>
      <point x="610.5" y="539" type="line"/>
      <point x="635" y="580.5" type="line"/>
      <point x="752.5" y="596.5" type="line"/>
      <point x="719" y="344" type="line"/>
      <point x="617" y="345.5" type="line"/>
      <point x="596.5" y="410.5" type="line"/>
      <point x="459.5" y="418.5" type="line"/>
      <point x="459.5" y="149.5" type="line"/>
      <point x="733.5" y="138" type="line"/>
      <point x="835" y="327" type="line"/>
      <point x="964.5" y="312" type="line"/>
      <point x="939.5" y="0" type="line"/>
      <point x="46.5" y="0" type="line"/>
      <point x="55.5" y="116" type="line"/>
      <point x="176" y="169" type="line"/>
      <point x="176" y="787" type="line"/>
    </contour>
    <contour>
      <point x="267.5" y="1127" type="curve" smooth="yes"/>
      <point x="267.5" y="1173.5"/>
      <point x="305" y="1219"/>
      <point x="379" y="1219" type="curve" smooth="yes"/>
      <point x="458" y="1219"/>
      <point x="493.5" y="1173.5"/>
      <point x="493.5" y="1128" type="curve" smooth="yes"/>
      <point x="493.5" y="1073.5"/>
      <point x="456" y="1032.5"/>
      <point x="378.5" y="1032.5" type="curve" smooth="yes"/>
      <point x="299.5" y="1032.5"/>
      <point x="267.5" y="1077"/>
    </contour>
    <contour>
      <point x="556" y="1127" type="curve" smooth="yes"/>
      <point x="556" y="1173.5"/>
      <point x="593.5" y="1219"/>
      <point x="667.5" y="1219" type="curve" smooth="yes"/>
      <point x="746.5" y="1219"/>
      <point x="782.5" y="1173.5"/>
      <point x="782.5" y="1128" type="curve" smooth="yes"/>
      <point x="782.5" y="1073.5"/>
      <point x="744.5" y="1032.5"/>
      <point x="667" y="1032.5" type="curve" smooth="yes"/>
      <point x="588" y="1032.5"/>
      <point x="556" y="1077"/>
    </contour>
  </outline>
</glyph>
<glyph name="icircumflex" format="1">
  <advance width="633"/>
  <unicode hex="00EE"/>
  <outline>
    <contour>
      <point x="35" y="841.5" type="line"/>
      <point x="50.5" y="954.5" type="line"/>
      <point x="91" y="954.5"/>
      <point x="519.5" y="954.5"/>
      <point x="596" y="954.5" type="curve"/>
      <point x="583" y="836.5" type="line"/>
      <point x="454" y="784" type="line"/>
      <point x="454" y="168.5" type="line"/>
      <point x="589.5" y="120" type="line"/>
      <point x="578" y="0" type="line"/>
      <point x="39.5" y="0" type="line"/>
      <point x="48.5" y="108" type="line"/>
      <point x="175" y="171" type="line"/>
      <point x="175" y="783.5" type="line"/>
    </contour>
    <contour>
      <point x="64" y="1054" type="line"/>
      <point x="225" y="1271" type="line"/>
      <point x="414.5" y="1278.5" type="line"/>
      <point x="580.5" y="1058" type="line"/>
      <point x="430" y="1035" type="line"/>
      <point x="316.5" y="1150.5" type="line"/>
      <point x="304" y="1150.5" type="line"/>
      <point x="200.5" y="1034" type="line"/>
    </contour>
  </outline>
</glyph>
<glyph name="ntilde" format="1">
  <advance width="1172"/>
  <unicode hex="00F1"/>
  <outline>
    <contour>
      <point x="37" y="838" type="line"/>
      <point x="49.5" y="954.5" type="line"/>
      <point x="434.5" y="954.5" type="line"/>
      <point x="848" y="364" type="line"/>
      <point x="848" y="783.5" type="line"/>
      <point x="703" y="841.5" type="line"/>
      <point x="721" y="954.5" type="line"/>
      <point x="1162.5" y="954.5" type="line"/>
      <point x="1143.5" y="841.5" type="line"/>
      <point x="1016" y="789" type="line"/>
      <point x="1016" y="13" type="line"/>
      <point x="776" y="-24.5" type="line"/>
      <point x="352" y="593" type="line"/>
      <point x="352" y="162.5" type="line"/>
      <point x="494" y="114" type="line"/>
      <point x="482" y="0" type="line"/>
      <point x="38.5" y="0" type="line"/>
      <point x="47.5" y="106" type="line"/>
      <point x="176.5" y="169" type="line"/>
      <point x="176.5" y="770.5" type="line"/>
    </contour>
    <contour>
      <point x="303" y="1045.5" type="line"/>
      <point x="306.5" y="1182.5"/>
      <point x="392.5" y="1276.5"/>
      <point x="523.5" y="1245" type="curve" smooth="yes"/>
      <point x="671.5" y="1219.5" type="line" smooth="yes"/>
      <point x="729" y="1204"/>
      <point x="765.5" y="1230"/>
      <point x="775" y="1264.5" type="curve"/>
      <point x="857" y="1258" type="line"/>
      <point x="850" y="1129.5"/>
      <point x="775.5" y="1023"/>
      <point x="638" y="1057" type="curve" smooth="yes"/>
      <point x="492.5" y="1083" type="line" smooth="yes"/>
      <point x="421" y="1102.5"/>
      <point x="392.5" y="1067.5"/>
      <point x="381" y="1035.5" type="curve"/>
    </contour>
  </outline>
</glyph>
<glyph name="ograve" format="1">
  <advance width="1084"/>
  <unicode hex="00F2"/>
  <outline>
    <contour>
      <point x="36.5" y="463.5" type="curve" smooth="yes"/>
      <point x="36.5" y="764"/>
      <point x="233" y="972"/>
      <point x="555.5" y="972" type="curve" smooth="yes"/>
      <point x="852.5" y="972"/>
      <point x="1047.5" y="792.5"/>
      <point x="1047.5" y="481" type="curve" smooth="yes"/>
      <point x="1047.5" y="178.5"/>
      <point x="831.5" y="-27"/>
      <point x="510.5" y="-27" type="curve" smooth="yes"/>
      <point x="204" y="-27"/>
      <point x="36.5" y="181.5"/>
    </contour>
    <contour>
      <point x="341.5" y="523" type="curve" smooth="yes"/>
      <point x="341.5" y="363"/>
      <point x="393" y="121"/>
      <point x="549.5" y="121" type="curve" smooth="yes"/>
      <point x="688" y="121"/>
      <point x="731" y="255.5"/>
      <point x="731" y="453" type="curve" smooth="yes"/>
      <point x="731" y="622.5"/>
      <point x="670.5" y="836.5"/>
      <point x="521" y="836.5" type="curve" smooth="yes"/>
      <point x="381" y="836.5"/>
      <point x="341.5" y="700.5"/>
    </contour>
    <contour>
      <point x="252.529" y="1352.05" type="line"/>
      <point x="485.029" y="1376.05" type="line"/>
      <point x="623.53" y="1057.05" type="line"/>
      <point x="478.53" y="1026.55" type="line"/>
    </contour>
  </outline>
</glyph>
<glyph name="divide" format="1">
  <advance width="921"/>
  <unicode hex="00F7"/>
  <outline>
    <contour>
      <point x="50" y="432.5" type="line"/>
      <point x="62" y="578.5" type="line"/>
      <point x="873.5" y="578.5" type="line"/>
      <point x="863.5" y="432.5" type="line"/>
    </contour>
    <contour>
      <point x="288.5" y="223" type="curve" smooth="yes"/>
      <point x="288.5" y="287.5"/>
      <point x="339" y="356"/>
      <point x="452.5" y="356" type="curve" smooth="yes"/>
      <point x="572" y="356"/>
      <point x="622" y="288"/>
      <point x="622" y="224" type="curve" smooth="yes"/>
      <point x="622" y="148"/>
      <point x="569" y="84.5"/>
      <point x="452" y="84.5" type="curve" smooth="yes"/>
      <point x="332" y="84.5"/>
      <point x="288.5" y="153"/>
    </contour>
    <contour>
      <point x="288.5" y="785.5" type="curve" smooth="yes"/>
      <point x="288.5" y="850"/>
      <point x="339" y="918.5"/>
      <point x="452.5" y="918.5" type="curve" smooth="yes"/>
      <point x="572" y="918.5"/>
      <point x="622" y="850.5"/>
      <point x="622" y="786.5" type="curve" smooth="yes"/>
      <point x="622" y="710.5"/>
      <point x="569" y="647"/>
      <point x="452" y="647" type="curve" smooth="yes"/>
      <point x="332" y="647"/>
      <point x="288.5" y="715.5"/>
    </contour>
  </outline>
</glyph>
<glyph name="oslash" format="1">
  <advance width="1080"/>
  <unicode hex="00F8"/>
  <outline>
    <contour>
      <point x="49.5" y="463.5" type="curve" smooth="yes"/>
      <point x="49.5" y="764"/>
      <point x="246" y="972"/>
      <point x="568.5" y="972" type="curve" smooth="yes"/>
      <point x="865.5" y="972"/>
      <point x="1060.5" y="792.5"/>
      <point x="1060.5" y="481" type="curve" smooth="yes"/>
      <point x="1060.5" y="178.5"/>
      <point x="844.5" y="-27"/>
      <point x="523.5" y="-27" type="curve" smooth="yes"/>
      <point x="217" y="-27"/>
      <point x="49.5" y="181.5"/>
    </contour>
    <contour>
      <point x="28" y="9.5" type="line"/>
      <point x="198" y="181" type="line"/>
      <point x="268" y="202" type="line"/>
      <point x="763.5" y="757" type="line"/>
      <point x="782.5" y="830" type="line"/>
      <point x="919.5" y="956" type="line"/>
      <point x="1089.5" y="927" type="line"/>
      <point x="915.5" y="756" type="line"/>
      <point x="834.5" y="710.5" type="line"/>
      <point x="329" y="146" type="line"/>
      <point x="317" y="91.5" type="line"/>
      <point x="203.5" y="-20" type="line"/>
    </contour>
    <contour>
      <point x="354.5" y="523" type="curve" smooth="yes"/>
      <point x="354.5" y="363"/>
      <point x="406" y="121"/>
      <point x="562.5" y="121" type="curve" smooth="yes"/>
      <point x="701" y="121"/>
      <point x="744" y="255.5"/>
      <point x="744" y="453" type="curve" smooth="yes"/>
      <point x="744" y="622.5"/>
      <point x="683.5" y="836.5"/>
      <point x="534" y="836.5" type="curve" smooth="yes"/>
      <point x="394" y="836.5"/>
      <point x="354.5" y="700.5"/>
    </contour>
  </outline>
</glyph>
<glyph name="ugrave" format="1">
  <advance width="1189"/>
  <unicode hex="00F9"/>
  <outline>
    <contour>
      <point x="39.5" y="841.5" type="line"/>
      <point x="60.5" y="954.5" type="line"/>
      <point x="601.5" y="954.5" type="line"/>
      <point x="586" y="841.5" type="line"/>
      <point x="469" y="789" type="line"/>
      <point x="469" y="353" type="line" smooth="yes"/>
      <point x="469" y="203"/>
      <point x="542.5" y="149"/>
      <point x="648" y="149" type="curve" smooth="yes"/>
      <point x="757" y="149"/>
      <point x="826" y="194.5"/>
      <point x="826.5" y="332" type="curve" smooth="yes"/>
      <point x="828" y="783.5" type="line"/>
      <point x="698.5" y="841.5" type="line"/>
      <point x="713.5" y="954.5" type="line"/>
      <point x="1155" y="954.5" type="line"/>
      <point x="1141" y="841.5" type="line"/>
      <point x="1015.5" y="789" type="line"/>
      <point x="1011" y="362.5" type="line" smooth="yes"/>
      <point x="1006.5" y="85"/>
      <point x="858" y="-27"/>
      <point x="597.5" y="-27" type="curve" smooth="yes"/>
      <point x="421.5" y="-27"/>
      <point x="186.5" y="9.5"/>
      <point x="186.5" y="324" type="curve" smooth="yes"/>
      <point x="186.5" y="783.5" type="line"/>
    </contour>
    <contour>
      <point x="347.75" y="1350.1" type="line"/>
      <point x="580.25" y="1374.1" type="line"/>
      <point x="718.75" y="1055.1" type="line"/>
      <point x="573.75" y="1024.6" type="line"/>
    </contour>
  </outline>
</glyph>
<glyph name="ucircumflex" format="1">
  <advance width="1189"/>
  <unicode hex="00FB"/>
  <outline>
    <contour>
      <point x="39.5" y="841.5" type="line"/>
      <point x="60.5" y="954.5" type="line"/>
      <point x="601.5" y="954.5" type="line"/>
      <point x="586" y="841.5" type="line"/>
      <point x="469" y="789" type="line"/>
      <point x="469" y="353" type="line" smooth="yes"/>
      <point x="469" y="203"/>
      <point x="542.5" y="149"/>
      <point x="648" y="149" type="curve" smooth="yes"/>
      <point x="757" y="149"/>
      <point x="826" y="194.5"/>
      <point x="826.5" y="332" type="curve" smooth="yes"/>
      <point x="828" y="783.5" type="line"/>
      <point x="698.5" y="841.5" type="line"/>
      <point x="713.5" y="954.5" type="line"/>
      <point x="1155" y="954.5" type="line"/>
      <point x="1141" y="841.5" type="line"/>
      <point x="1015.5" y="789" type="line"/>
      <point x="1011" y="362.5" type="line" smooth="yes"/>
      <point x="1006.5" y="85"/>
      <point x="858" y="-27"/>
      <point x="597.5" y="-27" type="curve" smooth="yes"/>
      <point x="421.5" y="-27"/>
      <point x="186.5" y="9.5"/>
      <point x="186.5" y="324" type="curve" smooth="yes"/>
      <point x="186.5" y="783.5" type="line"/>
    </contour>
    <contour>
      <point x="364.5" y="1053" type="line"/>
      <point x="525" y="1270" type="line"/>
      <point x="715" y="1277.5" type="line"/>
      <point x="881" y="1057" type="line"/>
      <point x="730" y="1034" type="line"/>
      <point x="616.5" y="1149.5" type="line"/>
      <point x="604" y="1149.5" type="line"/>
      <point x="500.5" y="1033" type="line"/>
    </contour>
  </outline>
</glyph>
<glyph name="udieresis" format="1">
  <advance width="1189"/>
  <unicode hex="00FC"/>
  <outline>
    <contour>
      <point x="39.5" y="841.5" type="line"/>
      <point x="60.5" y="954.5" type="line"/>
      <point x="601.5" y="954.5" type="line"/>
      <point x="586" y="841.5" type="line"/>
      <point x="469" y="789" type="line"/>
      <point x="469" y="353" type="line" smooth="yes"/>
      <point x="469" y="203"/>
      <point x="542.5" y="149"/>
      <point x="648" y="149" type="curve" smooth="yes"/>
      <point x="757" y="149"/>
      <point x="826" y="194.5"/>
      <point x="826.5" y="332" type="curve" smooth="yes"/>
      <point x="828" y="783.5" type="line"/>
      <point x="698.5" y="841.5" type="line"/>
      <point x="713.5" y="954.5" type="line"/>
      <point x="1155" y="954.5" type="line"/>
      <point x="1141" y="841.5" type="line"/>
      <point x="1015.5" y="789" type="line"/>
      <point x="1011" y="362.5" type="line" smooth="yes"/>
      <point x="1006.5" y="85"/>
      <point x="858" y="-27"/>
      <point x="597.5" y="-27" type="curve" smooth="yes"/>
      <point x="421.5" y="-27"/>
      <point x="186.5" y="9.5"/>
      <point x="186.5" y="324" type="curve" smooth="yes"/>
      <point x="186.5" y="783.5" type="line"/>
    </contour>
    <contour>
      <point x="367" y="1143.5" type="curve" smooth="yes"/>
      <point x="367" y="1190"/>
      <point x="404.5" y="1235.5"/>
      <point x="478.5" y="1235.5" type="curve" smooth="yes"/>
      <point x="557.5" y="1235.5"/>
      <point x="593" y="1190"/>
      <point x="593" y="1144.5" type="curve" smooth="yes"/>
      <point x="593" y="1090"/>
      <point x="555.5" y="1049"/>
      <point x="478" y="1049" type="curve" smooth="yes"/>
      <point x="399" y="1049"/>
      <point x="367" y="1093.5"/>
    </contour>
    <contour>
      <point x="655.5" y="1143.5" type="curve" smooth="yes"/>
      <point x="655.5" y="1190"/>
      <point x="693" y="1235.5"/>
      <point x="767" y="1235.5" type="curve" smooth="yes"/>
      <point x="846" y="1235.5"/>
      <point x="882" y="1190"/>
      <point x="882" y="1144.5" type="curve" smooth="yes"/>
      <point x="882" y="1090"/>
      <point x="844" y="1049"/>
      <point x="766.5" y="1049" type="curve" smooth="yes"/>
      <point x="687.5" y="1049"/>
      <point x="655.5" y="1093.5"/>
    </contour>
  </outline>
</glyph>
<glyph name="yacute" format="1">
  <advance width="1003"/>
  <unicode hex="00FD"/>
  <outline>
    <contour>
      <point x="22.5" y="838.5" type="line"/>
      <point x="44" y="954.5" type="line"/>
      <point x="526" y="954.5" type="line"/>
      <point x="507" y="838.5" type="line"/>
      <point x="421" y="789" type="line"/>
      <point x="553.5" y="522.5" type="line"/>
      <point x="688" y="785.5" type="line"/>
      <point x="601.5" y="837.5" type="line"/>
      <point x="617.5" y="954" type="line"/>
      <point x="986.5" y="954" type="line"/>
      <point x="970.5" y="837.5" type="line"/>
      <point x="886.5" y="788.5" type="line"/>
      <point x="647.5" y="372" type="line"/>
      <point x="647.5" y="167.5" type="line"/>
      <point x="781.5" y="110" type="line"/>
      <point x="770" y="0" type="line"/>
      <point x="227" y="0" type="line"/>
      <point x="241" y="106" type="line"/>
      <point x="365.5" y="169" type="line"/>
      <point x="365.5" y="353" type="line"/>
      <point x="121.5" y="786.5" type="line"/>
    </contour>
    <contour>
      <point x="443.5" y="1058.55" type="line"/>
      <point x="577.5" y="1373.55" type="line"/>
      <point x="808" y="1349.05" type="line"/>
      <point x="586" y="1029.55" type="line"/>
    </contour>
  </outline>
</glyph>
<glyph name="circumflex" format="1">
  <advance width="638"/>
  <unicode hex="02C6"/>
  <outline>
    <contour>
      <point x="60" y="1356" type="line"/>
      <point x="220.5" y="1573" type="line"/>
      <point x="410.5" y="1580.5" type="line"/>
      <point x="576.5" y="1360" type="line"/>
      <point x="425.5" y="1337" type="line"/>
      <point x="312" y="1452.5" type="line"/>
      <point x="299.5" y="1452.5" type="line"/>
      <point x="196" y="1336" type="line"/>
    </contour>
  </outline>
</glyph>
<glyph name="dotaccent" format="1">
  <advance width="502"/>
  <unicode hex="02D9"/>
  <outline>
    <contour>
      <point x="84" y="1476" type="curve" smooth="yes"/>
      <point x="84" y="1540.5"/>
      <point x="135.5" y="1609.5"/>
      <point x="248" y="1609.5" type="curve" smooth="yes"/>
      <point x="367.5" y="1609.5"/>
      <point x="418.5" y="1541"/>
      <point x="418.5" y="1477" type="curve" smooth="yes"/>
      <point x="418.5" y="1401"/>
      <point x="364.5" y="1337.5"/>
      <point x="247.5" y="1337.5" type="curve" smooth="yes"/>
      <point x="127.5" y="1337.5"/>
      <point x="84" y="1406"/>
    </contour>
  </outline>
</glyph>
<glyph name="ring" format="1">
  <advance width="595"/>
  <unicode hex="02DA"/>
  <outline>
    <contour>
      <point x="77.5" y="1497.5" type="curve" smooth="yes"/>
      <point x="77.5" y="1590.5"/>
      <point x="155.5" y="1670"/>
      <point x="303" y="1670" type="curve" smooth="yes"/>
      <point x="452" y="1670"/>
      <point x="523.5" y="1605"/>
      <point x="523.5" y="1506.5" type="curve" smooth="yes"/>
      <point x="523.5" y="1418.5"/>
      <point x="449.5" y="1333.5"/>
      <point x="292.5" y="1333.5" type="curve" smooth="yes"/>
      <point x="144" y="1333.5"/>
      <point x="77.5" y="1397"/>
    </contour>
    <contour>
      <point x="218.5" y="1505.5" type="curve" smooth="yes"/>
      <point x="218.5" y="1453"/>
      <point x="250.5" y="1413"/>
      <point x="300" y="1413" type="curve" smooth="yes"/>
      <point x="343" y="1413"/>
      <point x="376.5" y="1443"/>
      <point x="376.5" y="1498.5" type="curve" smooth="yes"/>
      <point x="376.5" y="1548"/>
      <point x="341.5" y="1591"/>
      <point x="292" y="1591" type="curve" smooth="yes"/>
      <point x="247.5" y="1591"/>
      <point x="218.5" y="1550.5"/>
    </contour>
  </outline>
</glyph>
<glyph name="tilde" format="1">
  <advance width="718"/>
  <unicode hex="02DC"/>
  <outline>
    <contour>
      <point x="81.5" y="1350.5" type="line"/>
      <point x="85" y="1487.5"/>
      <point x="171" y="1581.5"/>
      <point x="302" y="1550" type="curve" smooth="yes"/>
      <point x="450" y="1524.5" type="line" smooth="yes"/>
      <point x="507.5" y="1509"/>
      <point x="544" y="1535"/>
      <point x="553.5" y="1569.5" type="curve"/>
      <point x="635.5" y="1563" type="line"/>
      <point x="628.5" y="1434.5"/>
      <point x="554" y="1328"/>
      <point x="416.5" y="1362" type="curve" smooth="yes"/>
      <point x="271" y="1388" type="line" smooth="yes"/>
      <point x="199.5" y="1407.5"/>
      <point x="171" y="1372.5"/>
      <point x="159.5" y="1340.5" type="curve"/>
    </contour>
  </outline>
</glyph>
<glyph name="Germandbls" format="1">
  <advance width="1479"/>
  <unicode hex="1E9E"/>
  <outline>
    <contour>
      <point x="34" y="0" type="line"/>
      <point x="44.5" y="104.5" type="line"/>
      <point x="203.5" y="165.5" type="line"/>
      <point x="203.5" y="739.5" type="line" smooth="yes"/>
      <point x="203.5" y="1103.5"/>
      <point x="504.5" y="1259"/>
      <point x="832.5" y="1259" type="curve" smooth="yes"/>
      <point x="1070" y="1259"/>
      <point x="1378" y="1198"/>
      <point x="1378" y="1015" type="curve" smooth="yes"/>
      <point x="1378" y="921.5"/>
      <point x="1333.5" y="862"/>
      <point x="1235" y="828.5" type="curve"/>
      <point x="1157" y="973.5"/>
      <point x="1073" y="1071"/>
      <point x="976.5" y="1071" type="curve" smooth="yes"/>
      <point x="911.5" y="1071"/>
      <point x="854" y="1010"/>
      <point x="854" y="934" type="curve" smooth="yes"/>
      <point x="854" y="704"/>
      <point x="1433" y="727"/>
      <point x="1433" y="333.5" type="curve" smooth="yes"/>
      <point x="1433" y="64"/>
      <point x="1162" y="-23.5"/>
      <point x="956.5" y="-23.5" type="curve" smooth="yes"/>
      <point x="770.5" y="-23.5"/>
      <point x="619" y="36"/>
      <point x="564.5" y="123.5" type="curve"/>
      <point x="588" y="432" type="line"/>
      <point x="724" y="410" type="line"/>
      <point x="762.5" y="228" type="line"/>
      <point x="801.5" y="169.5"/>
      <point x="893" y="128.5"/>
      <point x="981.5" y="128.5" type="curve" smooth="yes"/>
      <point x="1073" y="128.5"/>
      <point x="1145" y="154"/>
      <point x="1145" y="250.5" type="curve" smooth="yes"/>
      <point x="1145" y="475"/>
      <point x="582" y="438"/>
      <point x="582" y="813" type="curve" smooth="yes"/>
      <point x="582" y="969"/>
      <point x="688" y="1079"/>
      <point x="798.5" y="1102.5" type="curve"/>
      <point x="794.5" y="1109" type="line"/>
      <point x="777" y="1111"/>
      <point x="745.5" y="1112"/>
      <point x="729" y="1112" type="curve" smooth="yes"/>
      <point x="549.5" y="1112"/>
      <point x="478" y="977"/>
      <point x="478" y="762.5" type="curve" smooth="yes"/>
      <point x="479" y="0" type="line"/>
    </contour>
  </outline>
</glyph>
<glyph name="endash" format="1">
  <advance width="816"/>
  <unicode hex="2013"/>
  <outline>
    <contour>
      <point x="61" y="388" type="line"/>
      <point x="79" y="534" type="line"/>
      <point x="753" y="541" type="line"/>
      <point x="730" y="394" type="line"/>
    </contour>
  </outline>
</glyph>
<glyph name="emdash" format="1">
  <advance width="1387"/>
  <unicode hex="2014"/>
  <outline>
    <contour>
      <point x="61" y="388" type="line"/>
      <point x="79" y="534" type="line"/>
      <point x="1324" y="541" type="line"/>
      <point x="1303" y="394" type="line"/>
    </contour>
  </outline>
</glyph>
<glyph name="dagger" format="1">
  <advance width="858"/>
  <unicode hex="2020"/>
  <outline>
    <contour>
      <point x="44" y="689" type="line"/>
      <point x="52" y="844" type="line"/>
      <point x="348" y="836" type="line"/>
      <point x="342" y="1255" type="line"/>
      <point x="514" y="1244" type="line"/>
      <point x="506" y="836" type="line"/>
      <point x="812" y="844" type="line"/>
      <point x="804" y="681" type="line"/>
      <point x="506" y="692" type="line"/>
      <point x="520" y="-362" type="line"/>
      <point x="336" y="-351" type="line"/>
      <point x="348" y="694" type="line"/>
    </contour>
  </outline>
</glyph>
<glyph name="guilsinglleft" format="1">
  <advance width="437"/>
  <unicode hex="2039"/>
  <outline>
    <contour>
      <point x="50" y="469" type="line"/>
      <point x="318" y="819" type="line"/>
      <point x="377" y="736" type="line"/>
      <point x="237" y="460" type="line"/>
      <point x="385" y="166" type="line"/>
      <point x="311" y="76" type="line"/>
      <point x="49" y="448" type="line"/>
    </contour>
  </outline>
</glyph>
<glyph name="Euro" format="1">
  <advance width="1120"/>
  <unicode hex="20AC"/>
  <outline>
    <contour>
      <point x="24" y="316.5" type="line"/>
      <point x="37" y="432.5" type="line"/>
      <point x="658" y="432.5" type="line"/>
      <point x="634" y="316.5" type="line"/>
    </contour>
    <contour>
      <point x="21.5" y="499" type="line"/>
      <point x="37" y="616.5" type="line"/>
      <point x="698.5" y="616.5" type="line"/>
      <point x="674.5" y="499" type="line"/>
    </contour>
    <contour>
      <point x="133.5" y="435.5" type="curve" smooth="yes"/>
      <point x="133.5" y="715.5"/>
      <point x="310" y="972"/>
      <point x="670" y="972" type="curve" smooth="yes"/>
      <point x="795" y="972"/>
      <point x="902.5" y="925"/>
      <point x="930" y="904" type="curve"/>
      <point x="908" y="611" type="line"/>
      <point x="784" y="629" type="line"/>
      <point x="757" y="777" type="line"/>
      <point x="726" y="813.5"/>
      <point x="678" y="837"/>
      <point x="608.5" y="837" type="curve" smooth="yes"/>
      <point x="482.5" y="837"/>
      <point x="420.5" y="726"/>
      <point x="420.5" y="497.5" type="curve"/>
      <point x="420.5" y="276.5"/>
      <point x="530" y="151"/>
      <point x="683" y="151" type="curve" smooth="yes"/>
      <point x="808" y="151"/>
      <point x="886.5" y="214.5"/>
      <point x="923" y="255" type="curve"/>
      <point x="988" y="159.5" type="line"/>
      <point x="942" y="75.5"/>
      <point x="810" y="-26"/>
      <point x="603.5" y="-26" type="curve" smooth="yes"/>
      <point x="305" y="-26"/>
      <point x="133.5" y="144.5"/>
    </contour>
  </outline>
</glyph>
<glyph name="Germandbls.alt" format="1">
  <advance width="1476"/>
  <outline>
    <contour>
      <point x="34" y="0.5" type="line"/>
      <point x="44.5" y="105" type="line"/>
      <point x="204" y="166" type="line"/>
      <point x="204" y="703.5" type="line" smooth="yes"/>
      <point x="204" y="1110.5"/>
      <point x="504.5" y="1259.5"/>
      <point x="832.5" y="1259.5" type="curve" smooth="yes"/>
      <point x="1045" y="1259.5"/>
      <point x="1263" y="1229.5"/>
      <point x="1344.5" y="1200" type="curve"/>
      <point x="1335" y="1091" type="line"/>
      <point x="1011.5" y="774" type="line"/>
      <point x="1165" y="711"/>
      <point x="1426" y="627.5"/>
      <point x="1426" y="356.5" type="curve" smooth="yes"/>
      <point x="1426" y="87"/>
      <point x="1154.5" y="-23.5"/>
      <point x="949" y="-23.5" type="curve" smooth="yes"/>
      <point x="763" y="-23.5"/>
      <point x="611.5" y="40"/>
      <point x="557" y="127.5" type="curve"/>
      <point x="580.5" y="440" type="line"/>
      <point x="719.5" y="418" type="line"/>
      <point x="760" y="232" type="line"/>
      <point x="799" y="173.5"/>
      <point x="885" y="128.5"/>
      <point x="973.5" y="128.5" type="curve" smooth="yes"/>
      <point x="1065" y="128.5"/>
      <point x="1137.5" y="177"/>
      <point x="1137.5" y="273.5" type="curve" smooth="yes"/>
      <point x="1137.5" y="439"/>
      <point x="855" y="563.5"/>
      <point x="683.5" y="634.5" type="curve"/>
      <point x="659" y="692" type="line"/>
      <point x="992" y="1071" type="line"/>
      <point x="992" y="1077.5" type="line"/>
      <point x="925.5" y="1103"/>
      <point x="799.5" y="1118.5"/>
      <point x="754.5" y="1118.5" type="curve" smooth="yes"/>
      <point x="575.5" y="1118.5"/>
      <point x="478" y="1017"/>
      <point x="478" y="726" type="curve"/>
      <point x="479" y="0.5" type="line"/>
    </contour>
  </outline>
</glyph>
